<?xml version="1.0" encoding="utf-8"?>
<!-- Generator: Adobe Illustrator 24.0.3, SVG Export Plug-In . SVG Version: 6.00 Build 0)  -->
<!DOCTYPE svg PUBLIC "-//W3C//DTD SVG 1.1//EN" "http://www.w3.org/Graphics/SVG/1.1/DTD/svg11.dtd" [
	<!ENTITY ns_extend "http://ns.adobe.com/Extensibility/1.0/">
	<!ENTITY ns_ai "http://ns.adobe.com/AdobeIllustrator/10.0/">
	<!ENTITY ns_graphs "http://ns.adobe.com/Graphs/1.0/">
	<!ENTITY ns_vars "http://ns.adobe.com/Variables/1.0/">
	<!ENTITY ns_imrep "http://ns.adobe.com/ImageReplacement/1.0/">
	<!ENTITY ns_sfw "http://ns.adobe.com/SaveForWeb/1.0/">
	<!ENTITY ns_custom "http://ns.adobe.com/GenericCustomNamespace/1.0/">
	<!ENTITY ns_adobe_xpath "http://ns.adobe.com/XPath/1.0/">
]>
<svg version="1.1" xmlns:x="&ns_extend;" xmlns:i="&ns_ai;" xmlns:graph="&ns_graphs;"
	 xmlns="http://www.w3.org/2000/svg" xmlns:xlink="http://www.w3.org/1999/xlink" x="0px" y="0px" viewBox="0 0 1336.3 1394.5"
	 style="enable-background:new 0 0 1336.3 1394.5;" xml:space="preserve">
<style type="text/css">
	.st0{fill:#FF4500;}
	.st1{fill:#1FA2C3;}
	.st2{fill:#E3E3E3;}
	.st3{fill:#FFFFFF;}
	.st4{fill:#FFCD00;}
</style>
<metadata>
	<sfw  xmlns="&ns_sfw;">
		<slices></slices>
		<sliceSourceBounds  bottomLeftOrigin="true" height="1394.5" width="1336.3" x="9.2" y="-1370"></sliceSourceBounds>
		<optimizationSettings>
			<targetSettings  fileFormat="PNG24Format" targetSettingsID="0">
				<PNG24Format  filtered="false" interlaced="false" matteColor="#FFFFFF" noMatteColor="false" transparency="true">
					</PNG24Format>
			</targetSettings>
		</optimizationSettings>
	</sfw>
</metadata>
<g id="background">
	<g id="background_1_">
		<path class="st0" d="M1336.3,433.6c0-174.1-141.1-315.2-315.2-315.2c-39.2,0-76.6,7.2-111.2,20.2C853.1,55,757.3,0,648.7,0
			C518.3,0,406.4,79.2,358.4,192.1c-30-64-95-108.2-170.3-108.2C84.2,83.9,0,168.1,0,271.9c0,90,63.2,165.2,147.7,183.7
			C111,507.2,89.4,570.3,89.4,638.3c0,131.8,80.9,244.8,195.8,291.8c-12,17.2-21.2,37.1-26.6,59c-2.9,11.7-4.5,23.4-5.1,34.8H148.7
			c-24.7,0-44,21.4-41.5,46c9.3,92.5,46.3,173.1,98.5,224.3v55.2c0,24.8,20.1,45,45,45h172.1c24.8,0,45-20.1,45-45v-55.2
			c15.6-15.2,29.8-33.1,42.3-53.1c40,18.4,84.6,28.7,131.6,28.7c41.4,0,81-8,117.3-22.6c16.6,47,61.3,80.7,114,80.7
			c66.7,0,120.8-54.1,120.8-120.8c0-19.1-4.4-37.2-12.3-53.2c13,1.6,26.3,2.5,39.7,2.5c174.1,0,315.2-141.1,315.2-315.2
			c0-77.7-28.1-148.8-74.7-203.8C1308.1,582.4,1336.3,511.3,1336.3,433.6z M1026.3,1074.7c-21.2-3.2-41.5-11.5-60.6-24.6
			c9.5-31.3,10.2-66.3,2.1-104c-4.2-19.3-10.7-39.5-19.5-60.2c18.1,19.6,36.4,35.8,54.9,48.2c34.3,23,68.9,33.4,102.8,30.9
			c31.8-2.4,61.8-15.9,89.2-40.2c16.5-14.7,31.6-33.2,44.7-54.4c-5,23.5-14.1,47.5-27.1,70.9c-18.2,32.6-42.9,62.5-71.6,86.7
			c-36,30.3-74,47.5-104.2,47.5C1033.3,1075.5,1029.7,1075.2,1026.3,1074.7z M953.7,1041c-0.3-0.3-0.7-0.5-1-0.8
			c-0.6-0.5-1.3-1.1-1.9-1.6c-0.9-0.8-1.8-1.5-2.6-2.3c-0.7-0.6-1.3-1.2-1.9-1.7c-0.9-0.8-1.8-1.6-2.6-2.5c-0.6-0.6-1.3-1.2-1.9-1.8
			c-0.9-0.9-1.8-1.8-2.7-2.6c-0.6-0.6-1.2-1.2-1.8-1.8c-1-1-1.9-2-2.9-3c-0.5-0.5-1-1.1-1.5-1.6c-1.3-1.4-2.6-2.9-3.9-4.3
			c-0.1-0.2-0.3-0.3-0.4-0.5c-1.4-1.6-2.8-3.3-4.2-5c-0.5-0.5-0.9-1.1-1.4-1.7c-0.9-1.2-1.9-2.3-2.8-3.5c-0.5-0.7-1.1-1.4-1.6-2.1
			c-0.8-1.1-1.7-2.2-2.5-3.3c-0.6-0.8-1.1-1.5-1.7-2.3c-0.8-1.1-1.6-2.2-2.4-3.3c-0.6-0.8-1.1-1.6-1.7-2.4c-0.8-1.1-1.6-2.2-2.3-3.4
			c-0.6-0.8-1.1-1.6-1.7-2.5c-0.8-1.2-1.5-2.3-2.3-3.5c-0.5-0.8-1.1-1.7-1.6-2.5c-0.8-1.2-1.6-2.5-2.4-3.8c-0.5-0.8-1-1.6-1.5-2.4
			c-0.8-1.4-1.7-2.9-2.5-4.3c-0.4-0.7-0.8-1.4-1.2-2.1c-1.2-2.2-2.5-4.3-3.7-6.6c-0.7-1.3-1.4-2.6-2.1-3.9
			c-9.1-17-17.6-35.7-25.4-56.1c0-0.1-0.1-0.1-0.1-0.2c-0.6-1.5-1.1-2.9-1.7-4.4c0-0.1-0.1-0.2-0.1-0.4c-0.6-1.5-1.1-3-1.7-4.6
			c0-0.1-0.1-0.2-0.1-0.2c-0.5-1.5-1.1-3-1.6-4.5c0-0.1-0.1-0.3-0.1-0.4c-0.5-1.5-1.1-3-1.6-4.5c-0.1-0.2-0.1-0.3-0.1-0.4
			c-0.5-1.5-1-3-1.5-4.5c-0.1-0.2-0.1-0.3-0.2-0.5c-0.5-1.4-1-2.9-1.4-4.3c-0.1-0.2-0.2-0.5-0.2-0.7c-0.5-1.5-0.9-2.9-1.4-4.4
			c-0.1-0.2-0.2-0.5-0.2-0.7c-0.5-1.5-0.9-2.9-1.4-4.4c-0.1-0.2-0.2-0.5-0.2-0.8c-0.4-1.4-0.9-2.8-1.3-4.2c-0.1-0.3-0.2-0.7-0.3-1
			c-0.4-1.4-0.9-2.9-1.3-4.3c-0.1-0.3-0.2-0.7-0.3-1c-0.4-1.4-0.8-2.8-1.2-4.2c-0.1-0.4-0.2-0.8-0.3-1.2c-0.4-1.4-0.8-2.7-1.2-4.1
			c-0.1-0.4-0.2-0.9-0.4-1.3c-0.4-1.4-0.8-2.8-1.2-4.2c-0.1-0.4-0.2-0.8-0.3-1.2c-0.4-1.4-0.7-2.7-1.1-4.1c-0.1-0.5-0.3-1-0.4-1.4
			c-0.4-1.3-0.7-2.7-1.1-4.1c-0.1-0.5-0.3-1-0.4-1.5c-0.4-1.3-0.7-2.7-1-4c-0.1-0.5-0.3-1-0.4-1.6c-0.3-1.3-0.7-2.7-1-4
			c-0.1-0.5-0.3-1.1-0.4-1.6c-0.3-1.4-0.6-2.7-1-4.1c-0.1-0.6-0.3-1.2-0.4-1.9l-13.6,3.2c0,0,0,0.1,0,0.1
			c20.1,85.1,23.8,159.1,10.9,219.9c-0.4,2-0.9,3.9-1.3,5.9c-12.4,53.6-37.6,95.3-74.8,123.8c-0.9,0.7-1.8,1.4-2.8,2.1
			c-0.3,0.2-0.6,0.4-1,0.7c-0.6,0.5-1.3,0.9-1.9,1.4c-0.4,0.3-0.8,0.5-1.2,0.8c-0.6,0.4-1.2,0.8-1.8,1.2c-0.4,0.3-0.9,0.5-1.3,0.8
			c-0.6,0.4-1.2,0.7-1.8,1.1c-0.5,0.3-1,0.5-1.4,0.8c-0.6,0.3-1.2,0.7-1.8,1c-0.5,0.3-1,0.5-1.5,0.8c-0.6,0.3-1.2,0.6-1.8,0.9
			c-0.5,0.3-1,0.5-1.6,0.8c-0.6,0.3-1.2,0.6-1.9,0.9c-0.5,0.2-1.1,0.5-1.6,0.7c-0.4,0.2-0.8,0.4-1.2,0.6
			c-41.1-1.1-80.4-10.3-113.7-26.8c-35.8-17.7-63.4-43.4-79.8-74.3c-24.7-46.7-36.6-129.4,46.9-258.1c0-0.1,0.1-0.1,0.1-0.2
			l-11.7-7.6c0,0-0.1,0.1-0.1,0.1c-27.9,43-56.9,76.9-86.1,100.9c-23.1,19-46.4,31.8-69.5,38.2c0-0.1,0-0.2,0.1-0.3
			c0.1-0.5,0.2-0.9,0.3-1.4c0.2-1.2,0.5-2.5,0.8-3.7c0.1-0.6,0.3-1.2,0.4-1.8c0.2-1.1,0.5-2.2,0.8-3.2c0.2-0.7,0.3-1.3,0.5-2
			c0.3-1,0.5-2,0.8-3.1c0.2-0.7,0.4-1.4,0.6-2c0.3-1,0.6-2,0.9-3c0.2-0.7,0.4-1.3,0.6-2c0.3-1.1,0.7-2.1,1-3.2
			c0.2-0.6,0.4-1.2,0.6-1.8c0.4-1.2,0.8-2.4,1.2-3.7c0.1-0.4,0.3-0.9,0.4-1.3c0.6-1.7,1.2-3.3,1.8-5c0.1-0.3,0.3-0.7,0.4-1
			c0.5-1.3,1-2.6,1.5-3.9c0.2-0.6,0.5-1.2,0.7-1.8c0.4-1,0.9-2.1,1.3-3.2c0.3-0.6,0.6-1.3,0.8-1.9c0.4-1,0.9-2,1.3-3
			c0.3-0.7,0.6-1.3,0.9-2c0.4-1,0.9-2,1.4-2.9c0.3-0.7,0.6-1.3,0.9-2c0.5-1,1-2,1.5-3c0.3-0.6,0.6-1.2,0.9-1.9
			c0.6-1.1,1.1-2.2,1.7-3.2c0.3-0.5,0.5-1,0.8-1.5c0.9-1.6,1.7-3.2,2.6-4.8c15.7-27.6,36.3-52.2,61.2-73.3l-8.4-11.2
			c-41.6,27.8-87.9,43.8-133.8,46.2c-45.2,2.4-85.7-8.5-117.2-31.6c-1.6-1.2-3.2-2.4-4.8-3.7c-0.5-0.4-1-0.8-1.5-1.2
			c-1.1-0.9-2.1-1.7-3.2-2.6c-0.6-0.5-1.2-1-1.7-1.6c-0.9-0.8-1.9-1.6-2.8-2.5c-0.6-0.6-1.2-1.2-1.8-1.8c-0.9-0.8-1.7-1.7-2.5-2.5
			c-0.6-0.6-1.2-1.3-1.8-1.9c-0.8-0.8-1.6-1.7-2.3-2.5c-0.6-0.7-1.2-1.4-1.8-2.1c-0.7-0.8-1.5-1.7-2.2-2.6c-0.6-0.7-1.2-1.5-1.8-2.2
			c-0.7-0.9-1.4-1.7-2.1-2.6c-0.6-0.8-1.2-1.5-1.7-2.3c-0.5-0.7-1.1-1.4-1.6-2.1c-9.2-40.6-10.6-81.3-4-118
			c7.2-39.8,23.9-73.9,48.4-98.5c22.3-22.5,51.1-37.5,85.5-44.8c38.4-8,83.9-6.3,135.1,5.2c0.1,0,0.1,0,0.2,0l3.1-13.7
			c-66.7-15-114.8-38-143.3-68.6c0.2,0,0.3-0.1,0.5-0.1c2-0.3,3.9-0.5,5.9-0.7c0.3,0,0.6-0.1,0.8-0.1c2-0.2,4.1-0.4,6.1-0.6
			c0.2,0,0.4,0,0.6,0c2.1-0.2,4.2-0.3,6.3-0.4c0.1,0,0.2,0,0.3,0c2.1-0.1,4.3-0.2,6.4-0.2h0.3c2.1,0,4.3-0.1,6.4-0.1h0.6
			c2.1,0,4.1,0,6.2,0.1c0.3,0,0.6,0,0.9,0c2,0.1,4,0.1,6.1,0.2c0.3,0,0.7,0,1,0c2,0.1,4,0.2,6,0.4c0.4,0,0.7,0,1.1,0.1
			c2,0.1,4,0.3,5.9,0.5c0.4,0,0.7,0.1,1,0.1c2,0.2,4,0.4,6,0.6c0.3,0,0.6,0.1,1,0.1c2,0.2,4,0.5,6,0.8c0.3,0,0.6,0.1,0.8,0.1
			c2.1,0.3,4.1,0.6,6.2,0.9c0.2,0,0.4,0.1,0.6,0.1c2.1,0.3,4.3,0.7,6.4,1.1c0.1,0,0.1,0,0.2,0c2.1,0.4,4.2,0.8,6.3,1.2
			c0.2,0,0.4,0.1,0.5,0.1c2,0.4,4.1,0.8,6.1,1.2c0.2,0,0.5,0.1,0.8,0.2c2,0.4,3.9,0.9,5.9,1.3c0.3,0.1,0.6,0.1,0.9,0.2
			c1.9,0.4,3.8,0.9,5.7,1.4c0.3,0.1,0.6,0.2,1,0.2c1.9,0.5,3.8,1,5.6,1.5c0.3,0.1,0.7,0.2,1,0.3c1.9,0.5,3.7,1,5.6,1.5
			c0.3,0.1,0.6,0.2,0.9,0.3c1.9,0.5,3.7,1.1,5.6,1.6c0.3,0.1,0.5,0.2,0.8,0.2c1.9,0.6,3.8,1.2,5.6,1.8c0.2,0.1,0.4,0.1,0.6,0.2
			c1.9,0.6,3.8,1.2,5.7,1.9c0.1,0,0.2,0.1,0.3,0.1c1.9,0.6,3.8,1.3,5.7,2c0.1,0,0.2,0.1,0.2,0.1c1.9,0.7,3.7,1.3,5.6,2
			c0.2,0.1,0.3,0.1,0.5,0.2c1.8,0.7,3.5,1.3,5.3,2c0.2,0.1,0.4,0.2,0.7,0.2c1.7,0.7,3.4,1.3,5,2c0.2,0.1,0.5,0.2,0.7,0.3
			c1.6,0.7,3.3,1.3,4.9,2c0.2,0.1,0.5,0.2,0.8,0.3c1.6,0.7,3.2,1.3,4.7,2c0.2,0.1,0.5,0.2,0.7,0.3c1.6,0.7,3.1,1.4,4.6,2.1
			c0.2,0.1,0.4,0.2,0.6,0.3c1.5,0.7,3.1,1.4,4.6,2.2c0.2,0.1,0.3,0.1,0.5,0.2c1.5,0.7,3.1,1.5,4.6,2.2c0.1,0,0.2,0.1,0.2,0.1
			c1.6,0.8,3.1,1.5,4.6,2.3c1.6,0.8,3.2,1.7,4.9,2.6c4.1,2.2,8.2,4.5,12.2,7l7.3-11.9c-7.4-4.7-14.6-9.6-21.5-14.8
			c-37.6-27.9-68.4-62.6-88.1-99.7c-22.8-42.9-29.8-87-19.7-124.1c0.3-1.1,0.6-2.2,1-3.3c0.1-0.4,0.3-0.8,0.4-1.2
			c0.2-0.7,0.4-1.4,0.7-2.1c0.2-0.5,0.4-1,0.5-1.5c0.2-0.6,0.4-1.2,0.6-1.7c0.2-0.6,0.4-1.1,0.6-1.7c0.2-0.5,0.4-1,0.6-1.6
			c0.2-0.6,0.5-1.2,0.7-1.7c0.2-0.5,0.4-1,0.6-1.5c0.2-0.6,0.5-1.2,0.8-1.8c0.2-0.5,0.4-1,0.6-1.4c0.3-0.6,0.6-1.2,0.9-1.8
			c0.2-0.5,0.4-0.9,0.6-1.4c0.3-0.6,0.6-1.2,0.9-1.8c0.2-0.5,0.5-0.9,0.7-1.3c0.3-0.6,0.7-1.2,1-1.8c0.2-0.4,0.5-0.9,0.7-1.3
			c0.3-0.6,0.7-1.2,1.1-1.8c0.2-0.4,0.5-0.8,0.7-1.3c0.4-0.6,0.7-1.2,1.1-1.8c0.3-0.4,0.5-0.8,0.8-1.2c0.4-0.6,0.8-1.2,1.2-1.8
			c0.3-0.4,0.5-0.8,0.8-1.2c0.4-0.6,0.8-1.2,1.2-1.8c0.3-0.4,0.5-0.8,0.8-1.2c0.4-0.6,0.9-1.2,1.3-1.8c0.3-0.4,0.6-0.8,0.9-1.2
			c0.4-0.6,0.9-1.2,1.3-1.7c0.3-0.4,0.6-0.8,0.9-1.2c0.4-0.6,0.9-1.2,1.4-1.7c0.3-0.4,0.6-0.8,0.9-1.2c0.5-0.6,0.9-1.1,1.4-1.7
			c0.3-0.4,0.6-0.8,1-1.2c0.5-0.5,1-1.1,1.4-1.6c0.3-0.4,0.7-0.8,1-1.2c0.5-0.5,1-1.1,1.5-1.6c0.4-0.4,0.7-0.8,1.1-1.2
			c0.5-0.5,1-1.1,1.5-1.6c0.4-0.4,0.7-0.8,1.1-1.2c0.5-0.5,1-1,1.6-1.5c0.4-0.4,0.8-0.8,1.2-1.1c0.5-0.5,1.1-1,1.6-1.5
			c0.4-0.4,0.8-0.8,1.2-1.2c0.5-0.5,1.1-1,1.6-1.5c0.4-0.4,0.8-0.8,1.3-1.2c0.5-0.5,1.1-1,1.6-1.4c0.4-0.4,0.9-0.8,1.3-1.2
			c0.5-0.5,1.1-0.9,1.7-1.4c0.5-0.4,0.9-0.8,1.4-1.2c0.6-0.5,1.1-0.9,1.7-1.4c0.5-0.4,1-0.8,1.5-1.1c0.6-0.5,1.1-0.9,1.7-1.3
			c0.5-0.4,1-0.8,1.5-1.2c0.6-0.4,1.2-0.9,1.8-1.3c0.5-0.4,1-0.8,1.6-1.2c0.6-0.4,1.2-0.8,1.8-1.2c0.5-0.4,1.1-0.8,1.6-1.1
			c0.6-0.4,1.2-0.8,1.8-1.2c0.6-0.4,1.1-0.8,1.7-1.1c0.6-0.4,1.2-0.8,1.8-1.2c0.6-0.4,1.2-0.8,1.8-1.1c0.6-0.4,1.2-0.8,1.8-1.1
			c0.5-0.3,1-0.6,1.5-0.9c63.1-22.2,119.3-19.3,158.3,8.3c19.9,14,35.3,34.5,46,60.7c11.8,29.1,17.8,65.5,17.8,108.4h14
			c0-42.1,5.8-78.1,17.3-107c9.4-23.7,22.7-42.8,39.6-56.8c0,0,0.1,0.1,0.1,0.1c0.3,0.3,0.5,0.7,0.8,1c0.4,0.5,0.8,1,1.3,1.6
			c0.3,0.4,0.6,0.8,0.9,1.1c0.4,0.5,0.8,1,1.2,1.5c0.3,0.4,0.6,0.8,0.9,1.2c0.4,0.5,0.8,1,1.1,1.5c0.3,0.4,0.6,0.8,0.9,1.2
			c0.4,0.5,0.7,1,1.1,1.6c0.3,0.4,0.6,0.9,0.9,1.3c0.4,0.5,0.7,1.1,1,1.6c0.3,0.4,0.6,0.9,0.9,1.3c0.3,0.5,0.7,1.1,1,1.7
			c0.3,0.5,0.6,0.9,0.8,1.4c0.3,0.6,0.7,1.1,1,1.7c0.3,0.5,0.5,0.9,0.8,1.4c0.3,0.6,0.6,1.1,1,1.7c0.3,0.5,0.5,0.9,0.8,1.4
			c0.3,0.6,0.6,1.2,0.9,1.8c0.3,0.5,0.5,1,0.8,1.5c0.3,0.6,0.6,1.2,0.9,1.9c0.2,0.5,0.5,0.9,0.7,1.4c0.3,0.6,0.6,1.3,0.9,2
			c0.2,0.5,0.4,0.9,0.7,1.4c0.3,0.7,0.6,1.4,0.9,2.1c0.2,0.4,0.4,0.9,0.6,1.3c0.3,0.8,0.7,1.6,1,2.4c0.2,0.4,0.3,0.8,0.5,1.1
			c0.4,1.1,0.9,2.2,1.3,3.2c0,0.1,0.1,0.2,0.1,0.3c0.5,1.2,0.9,2.4,1.4,3.7c0.1,0.3,0.2,0.7,0.4,1c0.3,0.9,0.7,1.8,1,2.7
			c0.2,0.5,0.3,0.9,0.5,1.4c0.3,0.8,0.6,1.6,0.8,2.4c0.2,0.5,0.3,1,0.5,1.5c0.2,0.8,0.5,1.5,0.7,2.3c0.2,0.5,0.3,1.1,0.5,1.6
			c0.2,0.8,0.5,1.5,0.7,2.2c0.2,0.6,0.3,1.1,0.5,1.7c0.2,0.7,0.4,1.5,0.7,2.2c0.2,0.6,0.3,1.2,0.5,1.8c0.2,0.8,0.4,1.5,0.6,2.3
			c0.2,0.6,0.3,1.2,0.5,1.8c0.2,0.8,0.4,1.5,0.6,2.3c0.2,0.6,0.3,1.2,0.4,1.8c0.2,0.8,0.4,1.5,0.6,2.3c0.1,0.6,0.3,1.2,0.4,1.9
			c0.2,0.8,0.3,1.6,0.5,2.4c0.1,0.6,0.3,1.2,0.4,1.9c0.2,0.8,0.3,1.6,0.5,2.4c0.1,0.6,0.2,1.3,0.4,1.9c0.2,0.8,0.3,1.6,0.5,2.5
			c0.1,0.6,0.2,1.2,0.3,1.9c0.1,0.8,0.3,1.7,0.4,2.6c0.1,0.6,0.2,1.2,0.3,1.8c0.2,0.9,0.3,1.8,0.4,2.7c0.1,0.6,0.2,1.2,0.3,1.8
			c0.2,1,0.3,2,0.5,3.1c0.1,0.5,0.1,1,0.2,1.5c0.2,1.5,0.4,3,0.6,4.6c4.9,39.7,3.6,84.8-3.7,123.7c-1.2,6.3-2.6,12.6-4.1,18.9
			l13.6,3.4c0.4-1.6,0.8-3.2,1.3-4.8c11.3-41.8,29.4-79.5,52.6-110.5c4.5-6,9.2-11.7,14-17.1c2.9-3.3,5.9-6.4,8.8-9.4
			c28.9-29,61.2-46.2,94.3-49.9c7.1-0.8,14.4-1,21.8-0.5h0.1c1,0.1,2,0.2,3.1,0.2c0.1,0,0.1,0,0.2,0c1,0.1,2,0.2,3,0.3
			c0.1,0,0.2,0,0.3,0c1,0.1,1.9,0.2,2.9,0.3c0.1,0,0.3,0,0.4,0.1c0.9,0.1,1.9,0.3,2.8,0.4c0.2,0,0.3,0.1,0.5,0.1
			c0.9,0.1,1.8,0.3,2.7,0.5c0.2,0,0.4,0.1,0.6,0.1c0.9,0.2,1.7,0.3,2.6,0.5c0.2,0,0.5,0.1,0.7,0.2c0.8,0.2,1.7,0.3,2.5,0.5
			c0.3,0.1,0.5,0.1,0.8,0.2c0.8,0.2,1.6,0.4,2.4,0.6c0.3,0.1,0.6,0.2,0.9,0.2c0.8,0.2,1.5,0.4,2.3,0.6c0.3,0.1,0.6,0.2,1,0.3
			c0.8,0.2,1.5,0.4,2.2,0.6c0.4,0.1,0.7,0.2,1.1,0.3c0.7,0.2,1.4,0.4,2.2,0.7c0.4,0.1,0.8,0.2,1.1,0.4c0.7,0.2,1.4,0.5,2.1,0.7
			c0.4,0.1,0.8,0.3,1.2,0.4c0.7,0.2,1.3,0.5,2,0.7c0.4,0.2,0.9,0.3,1.3,0.5c0.6,0.2,1.3,0.5,1.9,0.7c0.4,0.2,0.9,0.4,1.4,0.5
			c0.6,0.2,1.2,0.5,1.9,0.7c0.5,0.2,0.9,0.4,1.4,0.6c0.6,0.2,1.2,0.5,1.8,0.8c0.5,0.2,1,0.4,1.5,0.7c0.6,0.3,1.2,0.5,1.8,0.8
			c0.5,0.2,1,0.5,1.5,0.7c0.6,0.3,1.1,0.5,1.7,0.8c0.5,0.2,1,0.5,1.5,0.8c0.6,0.3,1.1,0.5,1.7,0.8c0.5,0.3,1.1,0.5,1.6,0.8
			c0.5,0.3,1.1,0.6,1.6,0.9c0.5,0.3,1.1,0.6,1.6,0.8c0.5,0.3,1.1,0.6,1.6,0.9c0.5,0.3,1.1,0.6,1.6,0.9c0.5,0.3,1.1,0.6,1.6,0.9
			c0.5,0.3,1.1,0.6,1.6,1c0.5,0.3,1,0.6,1.6,0.9c0.6,0.3,1.1,0.7,1.7,1c0.5,0.3,1,0.6,1.5,0.9c0.6,0.3,1.1,0.7,1.7,1
			c0.4,0.2,0.8,0.5,1.1,0.7c41.1,50,55.8,100.7,41.3,142.9c-8,23.5-25,44.3-50.6,61.9c-28.6,19.7-67.9,35.2-116.8,46.2
			c-0.1,0-0.1,0-0.2,0l3.1,13.7c52.9-11.9,99.6-13.4,138.8-4.4c32.9,7.5,60.4,22.3,81.9,43.9c-1,1.2-2.1,2.4-3.1,3.6
			c-0.1,0.1-0.2,0.2-0.3,0.4c-1.2,1.3-2.5,2.7-3.8,4c-0.4,0.4-0.9,0.8-1.3,1.3c-0.9,0.9-1.8,1.8-2.7,2.6c-0.5,0.5-1.1,1-1.7,1.5
			c-0.8,0.8-1.7,1.5-2.5,2.3c-0.6,0.5-1.2,1.1-1.9,1.6c-0.8,0.7-1.7,1.4-2.5,2.1c-0.7,0.5-1.3,1.1-2,1.6c-0.8,0.7-1.7,1.3-2.5,2
			c-0.7,0.5-1.4,1.1-2.1,1.6c-0.9,0.6-1.7,1.3-2.6,1.9c-0.7,0.5-1.5,1-2.2,1.5c-0.9,0.6-1.8,1.2-2.7,1.8c-0.8,0.5-1.5,1-2.3,1.5
			c-0.9,0.6-1.9,1.2-2.8,1.8c-0.8,0.5-1.6,1-2.4,1.4c-1,0.6-1.9,1.1-2.9,1.7c-0.8,0.5-1.6,0.9-2.4,1.4c-1,0.6-2,1.1-3.1,1.6
			c-0.8,0.4-1.6,0.9-2.4,1.3c-1.1,0.5-2.1,1.1-3.2,1.6c-0.8,0.4-1.6,0.8-2.4,1.2c-1.1,0.5-2.3,1.1-3.5,1.6c-0.8,0.4-1.6,0.7-2.4,1.1
			c-1.3,0.6-2.6,1.1-4,1.7c-0.7,0.3-1.3,0.6-2,0.8c-2,0.8-4.1,1.6-6.1,2.4c-33.9,12.8-73.8,19.2-115.1,18.5l-0.7,14
			c19.3,1.7,38,5.2,55.7,10.3c2.7,0.8,5.4,1.6,8.1,2.5c4,1.3,8,2.7,11.9,4.1c60.1,22.4,107,64.1,127.4,116.3c0.5,1.3,1,2.6,1.4,3.8
			c0.1,0.3,0.2,0.6,0.3,0.9c0.4,1,0.7,2,1,3c0.1,0.4,0.3,0.9,0.4,1.3c0.3,0.8,0.6,1.7,0.8,2.6c0.2,0.5,0.3,1,0.4,1.5
			c0.2,0.8,0.5,1.6,0.7,2.4c0.1,0.5,0.3,1.1,0.4,1.6c0.2,0.8,0.4,1.6,0.6,2.4c0.1,0.5,0.3,1.1,0.4,1.7c0.2,0.8,0.4,1.5,0.6,2.3
			c0.1,0.6,0.2,1.1,0.4,1.7c0.2,0.8,0.3,1.5,0.5,2.3c0.1,0.6,0.2,1.2,0.3,1.8c0.1,0.8,0.3,1.5,0.4,2.3c0.1,0.6,0.2,1.2,0.3,1.8
			c0.1,0.8,0.2,1.5,0.4,2.3c0.1,0.6,0.2,1.2,0.3,1.8c0.1,0.8,0.2,1.5,0.3,2.3c0.1,0.6,0.1,1.2,0.2,1.8c0.1,0.8,0.2,1.5,0.3,2.3
			c0.1,0.6,0.1,1.3,0.2,1.9c0.1,0.7,0.1,1.5,0.2,2.2c0,0.6,0.1,1.3,0.1,1.9c0.1,0.7,0.1,1.5,0.1,2.2c0,0.7,0.1,1.3,0.1,2
			c0,0.7,0.1,1.5,0.1,2.2c0,0.7,0,1.3,0.1,2c0,0.7,0,1.5,0,2.2c0,0.7,0,1.4,0,2.1c0,0.5,0,1,0,1.5c-15.2,33.1-35.4,61.3-58.3,81.7
			c-25,22.2-52.2,34.5-80.9,36.7c-65.9,4.9-134.8-44.7-199.1-143.6c0,0-0.1-0.1-0.1-0.1l-11.7,7.6c30.9,47.6,51.1,92.8,60.1,134.1
			C961.3,982.4,961.2,1013.3,953.7,1041z M904.6,1252.2c-13.7,0-24.7-11.1-24.7-24.7c0-13.6,11.1-24.7,24.7-24.7
			c13.6,0,24.7,11.1,24.7,24.7C929.3,1241.2,918.2,1252.2,904.6,1252.2z M827,1206.9c-6.9,0-12.4-5.6-12.4-12.4
			c0-6.9,5.6-12.4,12.4-12.4s12.4,5.6,12.4,12.4C839.5,1201.3,833.9,1206.9,827,1206.9z M640.4,1190c-34.3-1-69-8.4-100.3-21.6
			c-26.4-11.1-49.4-25.8-68.4-43.7c-20.7-19.4-36.1-42.2-45.9-67.8c-11.2-29.2-14.8-62.1-10.6-95.4c27-6.3,54.2-20.6,80.8-42.5
			c11.6-9.6,23.2-20.6,34.7-33.1c-38.6,91-26,154.2-5.1,193.7c17.7,33.5,47.4,61.3,85.9,80.3c25.5,12.6,54.3,21.2,84.6,25.4
			C678.9,1189,660.1,1190.6,640.4,1190z M487.7,1161.1c-14.1,42.8-38.2,79-68.3,102.9H252.8c-49.4-39-80.4-108.6-82.2-184.7h249.6
			c10.3,20.6,24.3,39.3,41.8,55.7c8.3,7.8,17.2,14.9,26.8,21.5L487.7,1161.1z M261.4,1350.2v-72.3H412v72.3H261.4z M325.6,1042.4
			c-1.3,7.5-2.3,15.2-2.9,22.9h-22.4c0.6-8.9,1.7-17.9,3.2-26.7c8-46.4,27.6-90.5,58.2-131.1c24.6-32.6,49.2-53.5,59.7-62.5l0.2-0.1
			c3.6-3,7.1-6,10.7-8.7c10-3.2,19.8-7.1,29.6-11.5c-9.5,11.3-18.1,23.4-25.6,36c-0.5,0.8-0.9,1.6-1.4,2.3l-0.4,0.4
			C394.7,903.5,340.1,958.4,325.6,1042.4z M94.3,228.2c60,0.4,91.6-11.3,136.7-50.8c-0.4,60,11.3,91.6,50.8,136.7
			c-59.9-0.4-91.6,11.4-136.7,50.8C145.6,305,133.8,273.4,94.3,228.2z M192.9,730.9c-14.6-37.2-18.7-81.5-11.3-127
			c4.8-29.2,14.3-57.5,27.5-81.9c13.9-25.6,31.2-46.2,51.4-61.3c17.4-12.9,38.1-22.1,61.7-27.2c18.1,22,44.6,40.4,79.3,55.3
			c-21.8-0.5-42.3,1.2-61.2,5.2c-37.2,7.8-68.3,24.1-92.6,48.6c-26.4,26.6-44.5,63.2-52.2,105.9C190.8,674.4,190,702.4,192.9,730.9z
			 M661.7,99.4c54.2,0,100.3,14.8,129.9,41.9c0.8,0.7,1.5,1.4,2.3,2.1c-18.4,15.4-32.9,36.2-43.1,61.9c-4.6,11.6-8.4,24.3-11.2,38
			c-3-14.3-7-27.5-11.9-39.5c-11.7-28.8-28.8-51.2-50.9-66.9c-27.4-19.4-62.2-27.8-101.5-25.1c27.2-8,56.2-12.3,84.8-12.5H661.7z
			 M1231.9,379.2c23.9,56.4,25.7,109.6,5.1,149.8c-2.1,4.1-4.5,8.1-7.1,12c-23.2-22.8-52.5-38.4-87.3-46.3c-20-4.6-41.7-6.6-65.1-6
			c16.9-7.2,32-15.3,45-24.3c28.1-19.3,46.9-42.5,55.9-68.9c12.3-35.9,6.1-76.7-17.3-118C1190.6,305.4,1215.8,341.3,1231.9,379.2z"
			/>
		<path class="st1" d="M488.9,1156.5l-1.2,4.5c-14.1,42.8-38.2,79-68.3,102.9H252.8c-49.4-39-80.4-108.6-82.2-184.7h249.6
			c10.3,20.6,24.3,39.3,41.8,55.7C470.4,1142.8,479.3,1149.9,488.9,1156.5z"/>
		<path class="st2" d="M461.9,824.7c-9.5,11.3-18.1,23.4-25.6,36c-0.5,0.8-0.9,1.6-1.4,2.3l-0.4,0.4c-39.8,40.1-94.4,95-108.9,179
			c-1.3,7.5-2.3,15.2-2.9,22.9h-22.4c0.6-8.9,1.7-17.9,3.2-26.7c8-46.4,27.6-90.5,58.2-131.1c24.6-32.6,49.2-53.5,59.7-62.5l0.2-0.1
			c3.6-3,7.1-6,10.7-8.7C442.3,832.9,452.2,829.1,461.9,824.7z"/>
		
			<ellipse transform="matrix(0.9239 -0.3827 0.3827 0.9239 -394.1458 407.4181)" class="st1" cx="827" cy="1194.5" rx="12.4" ry="12.4"/>
		<path class="st1" d="M929.3,1227.5c0,13.6-11.1,24.7-24.7,24.7c-13.7,0-24.7-11.1-24.7-24.7c0-13.6,11.1-24.7,24.7-24.7
			C918.2,1202.8,929.3,1213.9,929.3,1227.5z"/>
		<path class="st1" d="M281.9,314.1c-59.9-0.4-91.6,11.4-136.7,50.8c0.4-60-11.3-91.6-50.8-136.7c60,0.4,91.6-11.3,136.7-50.8
			C230.6,237.4,242.4,269,281.9,314.1z"/>
		<path class="st0" d="M806.7,615.4c0,16.6-13.5,30.1-30.1,30.1c-16.6,0-30.1-13.5-30.1-30.1c0-16.6,13.5-30.1,30.1-30.1
			C793.2,585.3,806.7,598.8,806.7,615.4z"/>
		<path class="st3" d="M941.8,564.3c0,41.9-34.1,76-75.9,76c-16.7,0-32.9-5.5-46.1-15.6c0.6-3,1-6.1,1-9.2c0-19.5-12.7-36-30.2-41.9
			c-0.4-3.1-0.6-6.2-0.6-9.2c0-17.2,5.8-33,15.4-45.8c-4.2,8.1-6.5,17.2-6.5,26.9c0,32.4,26.3,58.7,58.7,58.7c3.2,0,6.2-0.2,9.3-0.7
			c-5.8-6.1-9.3-14.4-9.3-23.5c0-19,15.4-34.5,34.5-34.5c9.1,0,17.3,3.5,23.5,9.2c0.5-3,0.7-6.1,0.7-9.2c0-27.3-18.6-50.2-43.8-56.8
			C911.2,491.9,941.8,524.6,941.8,564.3z"/>
		<path class="st3" d="M763.4,564.3c0,3.1-0.2,6.2-0.6,9.2c-17.6,5.8-30.2,22.4-30.2,41.9c0,3.2,0.3,6.2,1,9.2
			c-13.2,10.1-29.4,15.6-46.1,15.6c-41.9,0-75.9-34.1-75.9-76c0-3,0.2-5.9,0.5-8.9c4.8,27.6,28.8,48.6,57.8,48.6
			c3.2,0,6.2-0.2,9.3-0.7c-5.8-6.1-9.3-14.4-9.3-23.5c0-19,15.4-34.5,34.5-34.5c9.1,0,17.3,3.5,23.5,9.2c0.5-3,0.7-6.1,0.7-9.2
			c0-27.6-19-50.7-44.6-57c1.2,0,2.4-0.1,3.6-0.1C729.3,488.3,763.4,522.4,763.4,564.3z"/>
		<path class="st0" d="M897.1,707.2c-7.6-14.4-22.3-18.8-39.5-18.8c-13.9,0-29.3,2.8-43.9,5.5c-12.8,2.4-24.9,4.6-34.8,4.6h-0.3
			c-10.3,0-22.6-2.3-35.5-4.8c-14.8-2.8-29.8-5.6-43.2-5.6c-17.1,0-31.6,4.6-39.6,19.8c-5.5,10.6-6.1,19.2-1.7,26.4
			c7,11.4,26.7,20.1,56.9,25.1c26.4,4.3,53,4.6,63.3,4.5c12.9-0.1,38.3-0.9,63.1-5.3c30.4-5.3,50.1-14.2,57-25.7
			C903.1,725.9,902.5,717.5,897.1,707.2z M778.7,742.2C778.7,742.2,778.7,742.2,778.7,742.2c-26.3,0-51.9-6.4-76.1-18.9l6.4-12.4
			c22.2,11.5,45.6,17.3,69.6,17.3c0,0,0,0,0,0c24,0,47.4-5.8,69.6-17.3l6.4,12.4C830.6,735.9,805,742.2,778.7,742.2z"/>
		<path class="st2" d="M1244.2,827.1c0-0.7,0-1.3-0.1-2c0-0.7,0-1.5-0.1-2.2c0-0.7-0.1-1.3-0.1-2c0-0.8-0.1-1.5-0.1-2.2
			c0-0.6-0.1-1.3-0.1-1.9c0-0.8-0.1-1.5-0.2-2.2c-0.1-0.6-0.1-1.3-0.2-1.9c-0.1-0.8-0.2-1.5-0.3-2.3c-0.1-0.6-0.1-1.2-0.2-1.8
			c-0.1-0.8-0.2-1.5-0.3-2.3c-0.1-0.6-0.2-1.2-0.3-1.8c-0.1-0.8-0.2-1.5-0.4-2.3c-0.1-0.6-0.2-1.2-0.3-1.8c-0.1-0.8-0.3-1.5-0.4-2.3
			c-0.1-0.6-0.2-1.2-0.3-1.8c-0.2-0.8-0.3-1.5-0.5-2.3c-0.1-0.6-0.2-1.1-0.4-1.7c-0.2-0.8-0.4-1.5-0.6-2.3c-0.1-0.5-0.3-1.1-0.4-1.7
			c-0.2-0.8-0.4-1.6-0.6-2.4c-0.1-0.5-0.3-1.1-0.4-1.6c-0.2-0.8-0.5-1.6-0.7-2.4c-0.1-0.5-0.3-1-0.4-1.5c-0.3-0.9-0.5-1.7-0.8-2.6
			c-0.1-0.4-0.3-0.9-0.4-1.3c-0.3-1-0.7-2-1-3c-0.1-0.3-0.2-0.6-0.3-0.9c-0.5-1.3-0.9-2.6-1.4-3.8c-20.4-52.2-67.4-93.9-127.4-116.3
			c-3.9-1.5-7.9-2.8-11.9-4.1c-2.7-0.9-5.4-1.7-8.1-2.5c-17.7-5.1-36.4-8.6-55.7-10.3l0.7-14c41.4,0.7,81.2-5.7,115.1-18.5
			c2.1-0.8,4.1-1.6,6.1-2.4c0.7-0.3,1.3-0.6,2-0.8c1.3-0.6,2.7-1.1,4-1.7c0.8-0.4,1.6-0.7,2.4-1.1c1.2-0.5,2.3-1.1,3.5-1.6
			c0.8-0.4,1.6-0.8,2.4-1.2c1.1-0.5,2.2-1.1,3.2-1.6c0.8-0.4,1.6-0.9,2.4-1.3c1-0.5,2.1-1.1,3.1-1.6c0.8-0.5,1.6-0.9,2.4-1.4
			c1-0.6,2-1.1,2.9-1.7c0.8-0.5,1.6-1,2.4-1.4c0.9-0.6,1.9-1.2,2.8-1.8c0.8-0.5,1.5-1,2.3-1.5c0.9-0.6,1.8-1.2,2.7-1.8
			c0.7-0.5,1.5-1,2.2-1.5c0.9-0.6,1.8-1.2,2.6-1.9c0.7-0.5,1.4-1,2.1-1.6c0.9-0.7,1.7-1.3,2.5-2c0.7-0.5,1.4-1.1,2-1.6
			c0.8-0.7,1.7-1.4,2.5-2.1c0.6-0.5,1.3-1,1.9-1.6c0.8-0.7,1.7-1.5,2.5-2.3c0.6-0.5,1.1-1,1.7-1.5c0.9-0.9,1.8-1.7,2.7-2.6
			c0.4-0.4,0.9-0.8,1.3-1.3c1.3-1.3,2.5-2.7,3.8-4c0.1-0.1,0.2-0.2,0.3-0.4c1.1-1.2,2.1-2.4,3.1-3.6c-21.5-21.7-49.1-36.5-81.9-43.9
			c-39.2-8.9-85.9-7.5-138.8,4.4l-3.1-13.7c0.1,0,0.1,0,0.2,0c48.9-11,88.2-26.5,116.8-46.2c25.5-17.5,42.6-38.4,50.6-61.9
			c14.4-42.2-0.2-92.9-41.3-142.9c-0.4-0.2-0.8-0.5-1.1-0.7c-0.6-0.3-1.1-0.7-1.7-1c-0.5-0.3-1-0.6-1.5-0.9c-0.6-0.3-1.1-0.7-1.7-1
			c-0.5-0.3-1-0.6-1.6-0.9c-0.6-0.3-1.1-0.6-1.6-1c-0.5-0.3-1.1-0.6-1.6-0.9c-0.5-0.3-1.1-0.6-1.6-0.9c-0.5-0.3-1.1-0.6-1.6-0.9
			c-0.5-0.3-1.1-0.6-1.6-0.8c-0.5-0.3-1.1-0.6-1.6-0.9c-0.5-0.3-1.1-0.5-1.6-0.8c-0.6-0.3-1.1-0.5-1.7-0.8c-0.5-0.2-1-0.5-1.5-0.8
			c-0.6-0.3-1.1-0.5-1.7-0.8c-0.5-0.2-1-0.5-1.5-0.7c-0.6-0.3-1.2-0.5-1.8-0.8c-0.5-0.2-1-0.4-1.5-0.7c-0.6-0.3-1.2-0.5-1.8-0.8
			c-0.5-0.2-0.9-0.4-1.4-0.6c-0.6-0.2-1.2-0.5-1.9-0.7c-0.4-0.2-0.9-0.4-1.4-0.5c-0.6-0.2-1.3-0.5-1.9-0.7c-0.4-0.2-0.9-0.3-1.3-0.5
			c-0.7-0.2-1.3-0.5-2-0.7c-0.4-0.1-0.8-0.3-1.2-0.4c-0.7-0.2-1.4-0.5-2.1-0.7c-0.4-0.1-0.8-0.3-1.1-0.4c-0.7-0.2-1.4-0.5-2.2-0.7
			c-0.3-0.1-0.7-0.2-1.1-0.3c-0.8-0.2-1.5-0.4-2.2-0.6c-0.3-0.1-0.6-0.2-1-0.3c-0.8-0.2-1.5-0.4-2.3-0.6c-0.3-0.1-0.6-0.1-0.9-0.2
			c-0.8-0.2-1.6-0.4-2.4-0.6c-0.3-0.1-0.5-0.1-0.8-0.2c-0.8-0.2-1.7-0.4-2.5-0.5c-0.2,0-0.5-0.1-0.7-0.2c-0.9-0.2-1.7-0.3-2.6-0.5
			c-0.2,0-0.4-0.1-0.6-0.1c-0.9-0.2-1.8-0.3-2.7-0.5c-0.2,0-0.3-0.1-0.5-0.1c-0.9-0.2-1.9-0.3-2.8-0.4c-0.1,0-0.3,0-0.4-0.1
			c-1-0.1-1.9-0.2-2.9-0.3c-0.1,0-0.2,0-0.3,0c-1-0.1-2-0.2-3-0.3c-0.1,0-0.1,0-0.2,0c-1-0.1-2-0.2-3.1-0.2h-0.1
			c-7.4-0.5-14.6-0.3-21.8,0.5c-33,3.7-65.4,20.9-94.3,49.9c-3,3-5.9,6.1-8.8,9.4c-4.9,5.5-9.6,11.2-14,17.1
			c-23.3,31-41.3,68.7-52.6,110.5c-0.4,1.6-0.9,3.2-1.3,4.8l-13.6-3.4c1.6-6.2,2.9-12.6,4.1-18.9c7.2-38.9,8.6-84,3.7-123.7
			c-0.2-1.5-0.4-3.1-0.6-4.6c-0.1-0.5-0.1-1-0.2-1.5c-0.2-1-0.3-2-0.5-3.1c-0.1-0.6-0.2-1.2-0.3-1.8c-0.1-0.9-0.3-1.8-0.4-2.7
			c-0.1-0.6-0.2-1.2-0.3-1.8c-0.1-0.8-0.3-1.7-0.4-2.6c-0.1-0.6-0.2-1.2-0.3-1.9c-0.2-0.8-0.3-1.7-0.5-2.5c-0.1-0.6-0.2-1.3-0.4-1.9
			c-0.2-0.8-0.3-1.6-0.5-2.4c-0.1-0.6-0.3-1.2-0.4-1.9c-0.2-0.8-0.3-1.6-0.5-2.4c-0.1-0.6-0.3-1.2-0.4-1.9c-0.2-0.8-0.4-1.5-0.6-2.3
			c-0.1-0.6-0.3-1.2-0.4-1.8c-0.2-0.8-0.4-1.5-0.6-2.3c-0.2-0.6-0.3-1.2-0.5-1.8c-0.2-0.8-0.4-1.5-0.6-2.3c-0.2-0.6-0.3-1.2-0.5-1.8
			c-0.2-0.8-0.4-1.5-0.7-2.2c-0.2-0.6-0.3-1.2-0.5-1.7c-0.2-0.8-0.5-1.5-0.7-2.2c-0.2-0.5-0.3-1.1-0.5-1.6c-0.2-0.8-0.5-1.5-0.7-2.3
			c-0.2-0.5-0.3-1-0.5-1.5c-0.3-0.8-0.5-1.6-0.8-2.4c-0.2-0.5-0.3-0.9-0.5-1.4c-0.3-0.9-0.6-1.8-1-2.7c-0.1-0.3-0.2-0.7-0.4-1
			c-0.5-1.2-0.9-2.4-1.4-3.7c0-0.1-0.1-0.2-0.1-0.3c-0.4-1.1-0.9-2.2-1.3-3.2c-0.2-0.4-0.3-0.8-0.5-1.1c-0.3-0.8-0.7-1.6-1-2.4
			c-0.2-0.5-0.4-0.9-0.6-1.3c-0.3-0.7-0.6-1.4-0.9-2.1c-0.2-0.5-0.4-0.9-0.7-1.4c-0.3-0.7-0.6-1.3-0.9-2c-0.2-0.5-0.5-1-0.7-1.4
			c-0.3-0.6-0.6-1.2-0.9-1.9c-0.2-0.5-0.5-1-0.8-1.5c-0.3-0.6-0.6-1.2-0.9-1.8c-0.3-0.5-0.5-1-0.8-1.4c-0.3-0.6-0.6-1.2-1-1.7
			c-0.3-0.5-0.5-0.9-0.8-1.4c-0.3-0.6-0.7-1.1-1-1.7c-0.3-0.5-0.6-0.9-0.8-1.4c-0.3-0.5-0.7-1.1-1-1.7c-0.3-0.4-0.6-0.9-0.9-1.3
			c-0.3-0.5-0.7-1.1-1-1.6c-0.3-0.4-0.6-0.9-0.9-1.3c-0.4-0.5-0.7-1-1.1-1.6c-0.3-0.4-0.6-0.8-0.9-1.2c-0.4-0.5-0.7-1-1.1-1.5
			c-0.3-0.4-0.6-0.8-0.9-1.2c-0.4-0.5-0.8-1-1.2-1.5c-0.3-0.4-0.6-0.8-0.9-1.1c-0.4-0.5-0.9-1.1-1.3-1.6c-0.3-0.3-0.6-0.7-0.8-1
			c0,0-0.1-0.1-0.1-0.1c-16.9,14-30.2,33-39.6,56.8c-11.5,28.9-17.3,64.8-17.3,107h-14c0-42.8-6-79.3-17.8-108.4
			c-10.7-26.2-26.1-46.7-46-60.7c-39-27.5-95.2-30.5-158.3-8.3c-0.5,0.3-1,0.6-1.5,0.9c-0.6,0.4-1.2,0.8-1.8,1.1
			c-0.6,0.4-1.2,0.8-1.8,1.1c-0.6,0.4-1.2,0.8-1.8,1.2c-0.6,0.4-1.1,0.8-1.7,1.1c-0.6,0.4-1.2,0.8-1.8,1.2c-0.5,0.4-1.1,0.8-1.6,1.1
			c-0.6,0.4-1.2,0.8-1.8,1.2c-0.5,0.4-1,0.8-1.6,1.2c-0.6,0.4-1.2,0.8-1.8,1.3c-0.5,0.4-1,0.8-1.5,1.2c-0.6,0.4-1.2,0.9-1.7,1.3
			c-0.5,0.4-1,0.8-1.5,1.1c-0.6,0.5-1.1,0.9-1.7,1.4c-0.5,0.4-0.9,0.8-1.4,1.2c-0.6,0.5-1.1,0.9-1.7,1.4c-0.5,0.4-0.9,0.8-1.3,1.2
			c-0.6,0.5-1.1,1-1.6,1.4c-0.4,0.4-0.9,0.8-1.3,1.2c-0.6,0.5-1.1,1-1.6,1.5c-0.4,0.4-0.8,0.8-1.2,1.2c-0.5,0.5-1.1,1-1.6,1.5
			c-0.4,0.4-0.8,0.8-1.2,1.1c-0.5,0.5-1.1,1-1.6,1.5c-0.4,0.4-0.7,0.8-1.1,1.2c-0.5,0.5-1,1-1.5,1.6c-0.4,0.4-0.7,0.8-1.1,1.2
			c-0.5,0.5-1,1.1-1.5,1.6c-0.4,0.4-0.7,0.8-1,1.2c-0.5,0.5-1,1.1-1.4,1.6c-0.3,0.4-0.6,0.8-1,1.2c-0.5,0.6-0.9,1.1-1.4,1.7
			c-0.3,0.4-0.6,0.8-0.9,1.2c-0.5,0.6-0.9,1.1-1.4,1.7c-0.3,0.4-0.6,0.8-0.9,1.2c-0.4,0.6-0.9,1.2-1.3,1.7c-0.3,0.4-0.6,0.8-0.9,1.2
			c-0.4,0.6-0.9,1.2-1.3,1.8c-0.3,0.4-0.5,0.8-0.8,1.2c-0.4,0.6-0.8,1.2-1.2,1.8c-0.3,0.4-0.5,0.8-0.8,1.2c-0.4,0.6-0.8,1.2-1.2,1.8
			c-0.3,0.4-0.5,0.8-0.8,1.2c-0.4,0.6-0.7,1.2-1.1,1.8c-0.2,0.4-0.5,0.8-0.7,1.3c-0.4,0.6-0.7,1.2-1.1,1.8c-0.2,0.4-0.5,0.9-0.7,1.3
			c-0.3,0.6-0.7,1.2-1,1.8c-0.2,0.4-0.5,0.9-0.7,1.3c-0.3,0.6-0.6,1.2-0.9,1.8c-0.2,0.5-0.4,0.9-0.6,1.4c-0.3,0.6-0.6,1.2-0.9,1.8
			c-0.2,0.5-0.4,1-0.6,1.4c-0.3,0.6-0.5,1.2-0.8,1.8c-0.2,0.5-0.4,1-0.6,1.5c-0.2,0.6-0.5,1.2-0.7,1.7c-0.2,0.5-0.4,1-0.6,1.6
			c-0.2,0.6-0.4,1.1-0.6,1.7c-0.2,0.6-0.4,1.1-0.6,1.7c-0.2,0.5-0.4,1-0.5,1.5c-0.2,0.7-0.4,1.4-0.7,2.1c-0.1,0.4-0.3,0.8-0.4,1.2
			c-0.3,1.1-0.7,2.2-1,3.3c-10.1,37.1-3.1,81.2,19.7,124.1c19.7,37.1,50.5,71.8,88.1,99.7c7,5.2,14.2,10.1,21.5,14.8l-7.3,11.9
			c-4-2.4-8.1-4.7-12.2-7c-1.6-0.9-3.2-1.8-4.9-2.6c-1.5-0.8-3-1.6-4.6-2.3c-0.1,0-0.2-0.1-0.2-0.1c-1.5-0.7-3-1.5-4.6-2.2
			c-0.2-0.1-0.3-0.1-0.5-0.2c-1.5-0.7-3-1.4-4.6-2.2c-0.2-0.1-0.4-0.2-0.6-0.3c-1.5-0.7-3.1-1.4-4.6-2.1c-0.2-0.1-0.5-0.2-0.7-0.3
			c-1.5-0.7-3.1-1.4-4.7-2c-0.2-0.1-0.5-0.2-0.8-0.3c-1.6-0.7-3.2-1.4-4.9-2c-0.2-0.1-0.5-0.2-0.7-0.3c-1.7-0.7-3.3-1.3-5-2
			c-0.2-0.1-0.4-0.2-0.7-0.2c-1.7-0.7-3.5-1.3-5.3-2c-0.2-0.1-0.3-0.1-0.5-0.2c-1.8-0.7-3.7-1.4-5.6-2c-0.1,0-0.1-0.1-0.2-0.1
			c-1.9-0.7-3.8-1.3-5.7-2c-0.1,0-0.2-0.1-0.3-0.1c-1.9-0.6-3.8-1.3-5.7-1.9c-0.2-0.1-0.4-0.1-0.6-0.2c-1.9-0.6-3.7-1.2-5.6-1.8
			c-0.3-0.1-0.5-0.2-0.8-0.2c-1.8-0.6-3.7-1.1-5.6-1.6c-0.3-0.1-0.6-0.2-0.9-0.3c-1.8-0.5-3.7-1-5.6-1.5c-0.3-0.1-0.7-0.2-1-0.3
			c-1.9-0.5-3.8-1-5.6-1.5c-0.3-0.1-0.7-0.2-1-0.2c-1.9-0.5-3.8-0.9-5.7-1.4c-0.3-0.1-0.6-0.1-0.9-0.2c-1.9-0.5-3.9-0.9-5.9-1.3
			c-0.3,0-0.5-0.1-0.8-0.2c-2-0.4-4.1-0.9-6.1-1.2c-0.2,0-0.3-0.1-0.5-0.1c-2.1-0.4-4.2-0.8-6.3-1.2c-0.1,0-0.1,0-0.2,0
			c-2.1-0.4-4.2-0.7-6.4-1.1c-0.2,0-0.4-0.1-0.6-0.1c-2.1-0.3-4.1-0.6-6.2-0.9c-0.3,0-0.6-0.1-0.8-0.1c-2-0.3-4-0.5-6-0.8
			c-0.3,0-0.6-0.1-1-0.1c-2-0.2-4-0.4-6-0.6c-0.3,0-0.7-0.1-1-0.1c-2-0.2-4-0.4-5.9-0.5c-0.4,0-0.7,0-1.1-0.1c-2-0.2-4-0.3-6-0.4
			c-0.3,0-0.7,0-1,0c-2-0.1-4-0.2-6.1-0.2c-0.3,0-0.6,0-0.9,0c-2.1,0-4.1-0.1-6.2-0.1h-0.6c-2.1,0-4.3,0-6.4,0.1h-0.3
			c-2.2,0.1-4.3,0.1-6.4,0.2c-0.1,0-0.2,0-0.3,0c-2.1,0.1-4.2,0.2-6.3,0.4c-0.2,0-0.4,0-0.6,0c-2,0.2-4.1,0.3-6.1,0.6
			c-0.3,0-0.6,0.1-0.8,0.1c-2,0.2-4,0.5-5.9,0.7c-0.2,0-0.3,0-0.5,0.1c28.5,30.6,76.6,53.6,143.3,68.6l-3.1,13.7c-0.1,0-0.1,0-0.2,0
			c-51.2-11.5-96.7-13.2-135.1-5.2c-34.4,7.2-63.2,22.3-85.5,44.8c-24.4,24.6-41.2,58.7-48.4,98.5c-6.6,36.7-5.3,77.5,4,118
			c0.5,0.7,1,1.4,1.6,2.1c0.6,0.8,1.1,1.6,1.7,2.3c0.7,0.9,1.4,1.7,2.1,2.6c0.6,0.7,1.2,1.5,1.8,2.2c0.7,0.9,1.5,1.7,2.2,2.6
			c0.6,0.7,1.2,1.4,1.8,2.1c0.8,0.8,1.6,1.7,2.3,2.5c0.6,0.6,1.2,1.3,1.8,1.9c0.8,0.8,1.7,1.7,2.5,2.5c0.6,0.6,1.2,1.2,1.8,1.8
			c0.9,0.9,1.8,1.7,2.8,2.5c0.6,0.5,1.2,1.1,1.7,1.6c1,0.9,2.1,1.8,3.2,2.6c0.5,0.4,1,0.8,1.5,1.2c1.6,1.3,3.2,2.5,4.8,3.7
			c31.5,23.1,72,34,117.2,31.6c45.9-2.4,92.2-18.4,133.8-46.2l8.4,11.2c-24.9,21.1-45.5,45.7-61.2,73.3c-0.9,1.6-1.8,3.2-2.6,4.8
			c-0.3,0.5-0.6,1-0.8,1.5c-0.6,1.1-1.1,2.2-1.7,3.2c-0.3,0.6-0.6,1.2-0.9,1.9c-0.5,1-1,2-1.5,3c-0.3,0.6-0.6,1.3-0.9,2
			c-0.5,1-0.9,1.9-1.4,2.9c-0.3,0.7-0.6,1.3-0.9,2c-0.4,1-0.9,2-1.3,3c-0.3,0.6-0.6,1.3-0.8,1.9c-0.4,1.1-0.9,2.1-1.3,3.2
			c-0.2,0.6-0.5,1.2-0.7,1.8c-0.5,1.3-1,2.6-1.5,3.9c-0.1,0.3-0.3,0.7-0.4,1c-0.6,1.7-1.2,3.3-1.8,5c-0.1,0.4-0.3,0.9-0.4,1.3
			c-0.4,1.2-0.8,2.4-1.2,3.7c-0.2,0.6-0.4,1.2-0.6,1.8c-0.3,1.1-0.7,2.1-1,3.2c-0.2,0.7-0.4,1.3-0.6,2c-0.3,1-0.6,2-0.9,3
			c-0.2,0.7-0.4,1.4-0.6,2c-0.3,1-0.6,2.1-0.8,3.1c-0.2,0.7-0.3,1.3-0.5,2c-0.3,1.1-0.5,2.2-0.8,3.2c-0.1,0.6-0.3,1.2-0.4,1.8
			c-0.3,1.2-0.5,2.5-0.8,3.7c-0.1,0.5-0.2,0.9-0.3,1.4c0,0.1,0,0.2-0.1,0.3c23.1-6.4,46.4-19.3,69.5-38.2
			c29.2-24,58.2-57.9,86.1-100.9c0,0,0.1-0.1,0.1-0.1L585,815c0,0.1-0.1,0.1-0.1,0.2c-83.5,128.7-71.6,211.3-46.9,258.1
			c16.3,30.9,43.9,56.6,79.8,74.3c33.3,16.4,72.6,25.7,113.7,26.8c0.4-0.2,0.8-0.4,1.2-0.6c0.5-0.2,1.1-0.5,1.6-0.7
			c0.6-0.3,1.3-0.6,1.9-0.9c0.5-0.3,1-0.5,1.6-0.8c0.6-0.3,1.2-0.6,1.8-0.9c0.5-0.3,1-0.5,1.5-0.8c0.6-0.3,1.2-0.7,1.8-1
			c0.5-0.3,1-0.5,1.4-0.8c0.6-0.3,1.2-0.7,1.8-1.1c0.5-0.3,0.9-0.5,1.3-0.8c0.6-0.4,1.2-0.8,1.8-1.2c0.4-0.3,0.8-0.5,1.2-0.8
			c0.7-0.4,1.3-0.9,1.9-1.4c0.3-0.2,0.6-0.4,1-0.7c0.9-0.7,1.9-1.4,2.8-2.1c37.2-28.6,62.3-70.2,74.8-123.8c0.4-1.9,0.9-3.9,1.3-5.9
			c12.8-60.8,9.2-134.7-10.9-219.9c0,0,0-0.1,0-0.1l13.6-3.2c0.1,0.6,0.3,1.2,0.4,1.9c0.3,1.4,0.6,2.7,1,4.1
			c0.1,0.5,0.3,1.1,0.4,1.6c0.3,1.3,0.7,2.7,1,4c0.1,0.5,0.3,1,0.4,1.6c0.3,1.3,0.7,2.7,1,4c0.1,0.5,0.3,1,0.4,1.5
			c0.4,1.4,0.7,2.7,1.1,4.1c0.1,0.5,0.2,1,0.4,1.4c0.4,1.4,0.7,2.7,1.1,4.1c0.1,0.4,0.2,0.8,0.3,1.2c0.4,1.4,0.8,2.8,1.2,4.2
			c0.1,0.4,0.2,0.9,0.4,1.3c0.4,1.4,0.8,2.7,1.2,4.1c0.1,0.4,0.2,0.8,0.3,1.2c0.4,1.4,0.8,2.8,1.2,4.2c0.1,0.3,0.2,0.7,0.3,1
			c0.4,1.4,0.8,2.9,1.3,4.3c0.1,0.3,0.2,0.7,0.3,1c0.4,1.4,0.9,2.8,1.3,4.2c0.1,0.3,0.2,0.5,0.2,0.8c0.5,1.5,0.9,3,1.4,4.4
			c0.1,0.2,0.1,0.5,0.2,0.7c0.5,1.5,0.9,2.9,1.4,4.4c0.1,0.2,0.2,0.5,0.2,0.7c0.5,1.5,0.9,2.9,1.4,4.3c0.1,0.2,0.1,0.3,0.2,0.5
			c0.5,1.5,1,3,1.5,4.5c0,0.2,0.1,0.3,0.1,0.4c0.5,1.5,1,3,1.6,4.5c0,0.1,0.1,0.3,0.1,0.4c0.5,1.5,1.1,3,1.6,4.5
			c0,0.1,0.1,0.2,0.1,0.2c0.6,1.5,1.1,3.1,1.7,4.6c0,0.1,0.1,0.2,0.1,0.4c0.6,1.5,1.1,2.9,1.7,4.4c0,0.1,0,0.1,0.1,0.2
			c7.8,20.4,16.3,39.1,25.4,56.1c0.7,1.3,1.4,2.6,2.1,3.9c1.2,2.2,2.5,4.4,3.7,6.6c0.4,0.7,0.8,1.4,1.2,2.1c0.8,1.5,1.7,2.9,2.5,4.3
			c0.5,0.8,1,1.6,1.5,2.4c0.8,1.3,1.6,2.5,2.4,3.8c0.5,0.8,1.1,1.7,1.6,2.5c0.8,1.2,1.5,2.4,2.3,3.5c0.6,0.8,1.1,1.7,1.7,2.5
			c0.8,1.1,1.6,2.3,2.3,3.4c0.6,0.8,1.1,1.6,1.7,2.4c0.8,1.1,1.6,2.2,2.4,3.3c0.6,0.8,1.1,1.5,1.7,2.3c0.8,1.1,1.7,2.2,2.5,3.3
			c0.5,0.7,1.1,1.4,1.6,2.1c0.9,1.2,1.9,2.3,2.8,3.5c0.4,0.6,0.9,1.1,1.4,1.7c1.4,1.7,2.8,3.3,4.2,5c0.1,0.2,0.3,0.3,0.4,0.5
			c1.3,1.5,2.6,2.9,3.9,4.3c0.5,0.5,1,1.1,1.5,1.6c0.9,1,1.9,2,2.9,3c0.6,0.6,1.2,1.2,1.8,1.8c0.9,0.9,1.8,1.8,2.7,2.6
			c0.6,0.6,1.2,1.2,1.9,1.8c0.9,0.8,1.8,1.6,2.6,2.5c0.6,0.6,1.3,1.2,1.9,1.7c0.9,0.8,1.8,1.5,2.6,2.3c0.6,0.6,1.3,1.1,1.9,1.6
			c0.3,0.3,0.7,0.6,1,0.8c7.4-27.8,7.6-58.7,0.4-92c-8.9-41.4-29.1-86.5-60.1-134.1l11.7-7.6c0,0,0.1,0.1,0.1,0.1
			c64.3,98.9,133.2,148.6,199.1,143.6c28.7-2.2,56-14.5,80.9-36.7c22.9-20.4,43.1-48.6,58.3-81.7c0-0.5,0-1,0-1.5c0-0.7,0-1.4,0-2.1
			C1244.2,828.5,1244.2,827.8,1244.2,827.1z M895.5,371.6l78.5,78.5L964,460l-78.5-78.5L895.5,371.6z M738.8,354.3l3.9,13.4
			l-106.6,30.9l-3.9-13.4L738.8,354.3z M910.9,740.2c-19.9,33.3-99,37.6-132,37.8c-0.9,0-1.9,0-3.1,0c-12.2,0-37.5-0.6-62.6-4.7
			c-34.9-5.8-57.3-16.4-66.6-31.6c-7.1-11.5-6.6-25,1.3-40.2c18.9-36.3,62.6-28.1,97.7-21.5c12.3,2.3,23.9,4.5,33,4.5h0.2
			c8.6,0,20.1-2.1,32.2-4.3c17.1-3.2,36.6-6.7,53.9-5.5c21.2,1.5,36.1,10.2,44.4,26c4.2,7.9,6.2,15.3,6.2,22.3
			C915.7,729.1,914.1,734.8,910.9,740.2z M979.7,600.4l-28.9-6.5c-2.6,7.4-6.1,14.4-10.5,20.8l23.4,18.1l-8.6,11.1l-23.6-18.2
			c-5.2,5.6-11.1,10.5-17.6,14.6l11.3,27.6l-13,5.3l-10.8-26.3c-10.9,4.8-23,7.4-35.7,7.4c-18.5,0-36.4-5.7-51.4-16.2
			c-7.7,12.8-21.8,21.4-37.8,21.4s-30.1-8.6-37.8-21.4c-15,10.5-33,16.2-51.4,16.2c-12.7,0-24.7-2.6-35.7-7.4L641,673.2l-13-5.3
			l11.3-27.6c-6.5-4.1-12.4-9-17.6-14.6l-23.6,18.2l-8.6-11.1l23.4-18.1c-4.3-6.4-7.9-13.4-10.5-20.8l-28.9,6.5l-3.1-13.6l28.4-6.4
			c-0.9-5.2-1.4-10.6-1.4-16.1c0-49.6,40.4-89.9,89.9-89.9c45.8,0,83.6,34.3,89.2,78.6c5.6-44.2,43.5-78.6,89.2-78.6
			c49.6,0,89.9,40.3,89.9,89.9c0,5.5-0.5,10.9-1.4,16.1l28.4,6.4L979.7,600.4z"/>
		<path class="st4" d="M401.5,488.8c-21.8-0.5-42.3,1.2-61.2,5.2c-37.2,7.8-68.3,24.1-92.6,48.6c-26.4,26.6-44.5,63.2-52.2,105.9
			c-4.7,26-5.6,54-2.7,82.5c-14.6-37.2-18.7-81.5-11.3-127c4.8-29.2,14.3-57.5,27.5-81.9c13.9-25.6,31.2-46.2,51.4-61.3
			c17.4-12.9,38.1-22.1,61.7-27.2C340.2,455.4,366.8,473.9,401.5,488.8z"/>
		<path class="st4" d="M696.2,1185.4c-17.2,3.6-36,5.2-55.7,4.6c-34.3-1-69-8.4-100.3-21.6c-26.4-11.1-49.4-25.8-68.4-43.7
			c-20.7-19.4-36.1-42.2-45.9-67.8c-11.2-29.2-14.8-62.1-10.6-95.4c27-6.3,54.2-20.6,80.8-42.5c11.6-9.6,23.2-20.6,34.7-33.1
			c-38.6,91-26,154.2-5.1,193.7c17.7,33.5,47.4,61.3,85.9,80.3C637,1172.7,665.8,1181.2,696.2,1185.4z"/>
		<path class="st4" d="M1237,529.1c-2.1,4.1-4.5,8.1-7.1,12c-23.2-22.8-52.5-38.4-87.3-46.3c-20-4.6-41.7-6.6-65.1-6
			c16.9-7.2,32-15.3,45-24.3c28.1-19.3,46.9-42.5,55.9-68.9c12.3-35.9,6.1-76.7-17.3-118c29.5,27.9,54.6,63.8,70.7,101.7
			C1255.8,435.6,1257.6,488.8,1237,529.1z"/>
		<path class="st4" d="M1239.9,870.5c-5,23.5-14.1,47.5-27.1,70.9c-18.2,32.6-42.9,62.5-71.6,86.7c-36,30.3-74,47.5-104.2,47.5
			c-3.7,0-7.2-0.3-10.7-0.8c-21.2-3.2-41.5-11.5-60.6-24.6c9.5-31.3,10.2-66.3,2.1-104c-4.2-19.3-10.7-39.5-19.5-60.2
			c18.1,19.6,36.4,35.8,54.9,48.2c34.3,23,68.9,33.4,102.8,30.9c31.8-2.4,61.8-15.9,89.2-40.2
			C1211.8,910.2,1226.9,891.7,1239.9,870.5z"/>
		<path class="st4" d="M793.9,143.4c-18.4,15.4-32.9,36.2-43.1,61.9c-4.6,11.6-8.4,24.3-11.2,38c-3-14.3-7-27.5-11.9-39.5
			c-11.7-28.8-28.8-51.2-50.9-66.9c-27.4-19.4-62.2-27.8-101.5-25.1c27.2-8,56.2-12.3,84.8-12.5h1.5c54.2,0,100.3,14.8,129.9,41.9
			C792.4,142,793.1,142.7,793.9,143.4z"/>
		<rect x="261.4" y="1277.9" class="st1" width="150.6" height="72.3"/>
	</g>
</g>
<g id="general">
	<g id="general_3_">
		<path id="pot_2_" d="M489.5,1154.5l-0.6,2l-1.2,4.5c-14.1,42.8-38.2,79-68.3,102.9H252.8c-49.4-39-80.4-108.6-82.2-184.7h252.4
			v-14H156.6v7c0,84.6,34.7,162.8,90.8,205.1v86.8H426v-87.7c33.2-25.5,59.8-64.9,75.1-111.3l0.2-0.8l1.7-6.2L489.5,1154.5z
			 M412,1350.2H261.4v-72.3H412V1350.2z"/>
		<g id="face_2_">
			<path id="nose_2_" d="M790.5,573.5c-4.2-1.4-8.7-2.2-13.4-2.2h-0.9c-4.7,0-9.2,0.8-13.4,2.2c-17.6,5.8-30.2,22.4-30.2,41.9
				c0,3.2,0.3,6.2,1,9.2c1,4.8,2.8,9.4,5.3,13.4c7.7,12.8,21.8,21.4,37.8,21.4s30.1-8.6,37.8-21.4c2.5-4.1,4.3-8.6,5.3-13.5
				c0.6-3,1-6.1,1-9.2C820.7,595.9,808.1,579.3,790.5,573.5z M776.6,645.5c-16.6,0-30.1-13.5-30.1-30.1c0-16.6,13.5-30.1,30.1-30.1
				c16.6,0,30.1,13.5,30.1,30.1C806.7,632,793.2,645.5,776.6,645.5z"/>
			<g id="eyes_2_">
				<path d="M777.4,564.3c0,2.3-0.1,4.7-0.3,7c-0.1,1.4-0.2,2.8-0.4,4.3c-0.2,1.6-0.4,3.2-0.7,4.8l-13.8-2.5
					c0.3-1.4,0.5-2.9,0.6-4.3c0.4-3.1,0.6-6.2,0.6-9.2c0-41.9-34.1-75.9-75.9-75.9c-1.2,0-2.4,0-3.6,0.1c25.6,6.3,44.6,29.4,44.6,57
					c0,3.2-0.2,6.2-0.7,9.2c-6.2-5.7-14.4-9.2-23.5-9.2c-19,0-34.5,15.4-34.5,34.5c0,9.1,3.5,17.3,9.3,23.5c-3,0.5-6.1,0.7-9.3,0.7
					c-29,0-53-21-57.8-48.6c-0.3,2.9-0.5,5.9-0.5,8.9c0,41.9,34.1,76,75.9,76c16.7,0,32.9-5.5,46.1-15.6c1.1-0.9,2.3-1.8,3.4-2.7
					l9.1,10.6c-2.3,2-4.7,3.9-7.2,5.6c-15,10.5-33,16.2-51.4,16.2c-12.7,0-24.7-2.6-35.7-7.4L641,673.2l-13-5.3l11.3-27.6
					c-6.5-4.1-12.4-9-17.6-14.6l-23.6,18.2l-8.6-11.1l23.4-18.1c-4.3-6.4-7.9-13.4-10.5-20.8l-28.9,6.5l-3.1-13.6l28.4-6.4
					c-0.9-5.2-1.4-10.6-1.4-16.1c0-49.6,40.4-89.9,89.9-89.9c45.8,0,83.6,34.3,89.2,78.6C777.1,556.6,777.4,560.4,777.4,564.3z"/>
				<path d="M950.8,593.9c-2.6,7.4-6.1,14.4-10.5,20.8l23.4,18.1l-8.6,11.1l-23.6-18.2c-5.2,5.6-11.1,10.5-17.6,14.6l11.3,27.6
					l-13,5.3l-10.8-26.3c-10.9,4.8-23,7.4-35.7,7.4c-18.5,0-36.4-5.7-51.4-16.2c-2.5-1.7-4.9-3.6-7.2-5.6l9.1-10.6
					c1.1,1,2.2,1.9,3.4,2.7c13.2,10.1,29.4,15.6,46.1,15.6c41.9,0,75.9-34.1,75.9-76c0-39.7-30.6-72.3-69.4-75.6
					c25.2,6.6,43.8,29.5,43.8,56.8c0,3.2-0.2,6.2-0.7,9.2c-6.2-5.7-14.4-9.2-23.5-9.2c-19,0-34.5,15.4-34.5,34.5
					c0,9.1,3.5,17.3,9.3,23.5c-3,0.5-6.1,0.7-9.3,0.7c-32.4,0-58.7-26.3-58.7-58.7c0-9.7,2.4-18.8,6.5-26.9
					c-9.7,12.7-15.4,28.6-15.4,45.8c0,3.1,0.2,6.2,0.6,9.2c0.2,1.4,0.4,2.9,0.6,4.3l-13.8,2.5c-0.3-1.6-0.5-3.2-0.7-4.7
					c-0.2-1.4-0.3-2.8-0.4-4.3c-0.2-2.3-0.3-4.7-0.3-7c0-3.8,0.2-7.6,0.7-11.4c5.6-44.2,43.5-78.6,89.2-78.6
					c49.6,0,89.9,40.3,89.9,89.9c0,5.5-0.5,10.9-1.4,16.1l28.4,6.4l-3.1,13.6L950.8,593.9z"/>
			</g>
			<g id="mouth_2_">
				<g>
					<path d="M909.5,700.7c-8.3-15.7-23.2-24.5-44.4-26c-17.3-1.2-36.8,2.3-53.9,5.5c-12.2,2.2-23.6,4.3-32.2,4.3h-0.2
						c-9.1,0-20.7-2.2-33-4.5c-35.1-6.6-78.8-14.7-97.7,21.5c-7.9,15.1-8.3,28.6-1.3,40.2c9.3,15.2,31.7,25.8,66.6,31.6
						c25.1,4.1,50.4,4.7,62.6,4.7c1.1,0,2.2,0,3.1,0c33.1-0.3,112.2-4.5,132-37.8c3.2-5.3,4.8-11.1,4.8-17.2
						C915.7,716,913.6,708.6,909.5,700.7z M898.9,733c-6.9,11.5-26.6,20.4-57,25.7c-24.8,4.3-50.2,5.2-63.1,5.3
						c-10.2,0.1-36.9-0.2-63.3-4.5c-30.2-5-49.9-13.7-56.9-25.1c-4.4-7.1-3.8-15.8,1.7-26.4c7.9-15.2,22.4-19.8,39.6-19.8
						c13.4,0,28.4,2.8,43.2,5.6c12.9,2.4,25.2,4.7,35.5,4.8h0.3c9.8,0,21.9-2.2,34.8-4.6c14.6-2.7,30.1-5.5,43.9-5.5
						c17.2,0,31.9,4.4,39.5,18.8C902.5,717.5,903.1,725.9,898.9,733z"/>
				</g>
				<path d="M854.8,723.3c-24.2,12.5-49.8,18.9-76.1,18.9c0,0,0,0,0,0c-26.3,0-51.8-6.4-76.1-18.9l6.4-12.4
					c22.2,11.5,45.6,17.3,69.6,17.3c0,0,0,0,0,0c24,0,47.4-5.8,69.6-17.3L854.8,723.3z"/>
			</g>
			<g id="brows_2_">
				<polygon points="742.7,367.8 636.1,398.7 632.2,385.3 738.8,354.3 				"/>
				<rect x="922.8" y="360.3" transform="matrix(0.7071 -0.7071 0.7071 0.7071 -21.6804 779.2193)" width="14" height="111"/>
			</g>
		</g>
		<path id="main_2_" d="M1243.5,757.9c-18.2-42.2-52.6-77.5-96.7-101.8c-0.6-0.4-1.3-0.7-1.9-1c-4.7-2.5-9.5-4.9-14.4-7.2
			c-13.5-6.3-27.8-11.6-42.7-15.8c22.2-3.2,43.3-8.5,62.7-15.8c5.7-2.2,11.3-4.5,16.6-7c2.1-1,4.3-2,6.4-3.1c2.1-1,4.1-2.1,6.2-3.2
			c1-0.5,2-1.1,3-1.7c22-12.3,40.2-27.6,53.6-45.1l3.6-4.7l-0.1-0.1c3.6-5.2,6.9-10.5,9.7-16c22.5-44,20.9-101.4-4.7-161.7
			c-23.3-55-65-105.9-111.5-136.2l0,0l-0.9-0.6c0,0,0,0,0,0c-25.4-16.4-51.5-26.5-77-29.8c-11.6-1.5-23.1-1.7-34.3-0.5
			c-2.5,0.3-5,0.6-7.5,1c-37.3,6.2-73.3,27.8-104.5,62.8c-15,16.8-28.3,36-39.7,57.2c-2.6,4.9-5.1,9.9-7.6,14.9
			c0.6-9.9,0.9-19.8,0.8-29.7c-0.1-16.5-1.1-32.8-3-48.3c-1.5-12.5-3.7-24.5-6.4-35.8c-8.8-37.1-23.7-67.6-43.8-89.4
			c0,0,0,0-0.1-0.1l-4.2-4.6l-0.1,0.1c-1.4-1.3-2.7-2.6-4.1-3.9c-32.5-29.7-82.5-45.9-141-45.6c-55.1,0.3-111.8,15.6-155.7,42l0,0
			l-0.6,0.4c-11.9,7.2-22.7,15.1-32.3,23.6c-2.1,1.9-4.2,3.8-6.2,5.8c-1,1-2,2-3,3c-19.5,19.8-32.9,42.4-39.6,66.9
			c-9.7,35.5-5.2,76.5,12.5,117.1c2.5,5.8,5.3,11.6,8.4,17.3c13.2,24.8,31,48.5,52.4,70c3.1,3.1,6.2,6.1,9.4,9.1
			c-1.7-0.6-3.3-1.2-5-1.8c-52.2-18.9-118.1-31.4-176.7-19.8c0,0,0,0,0,0l-11.1,2.2l0.2,0.3c-22.9,5.8-43.2,15.3-60.6,28.2
			c-43.1,32-73.9,87.5-84.4,152.2c-10.6,64.8,1.3,127.8,32.5,173.1l0,0l0.8,1.1c10.5,15,23.2,28,37.7,38.6
			c34.1,25,77.8,36.9,126.2,34.3c10.2-0.5,20.5-1.7,30.7-3.5c1.8-0.3,3.6-0.7,5.3-1c-12.9,11.6-31.6,29.9-50.4,54.8
			c-31.9,42.4-52.4,88.5-60.8,137.2c-1.6,9.6-2.8,19.3-3.5,29.1c-0.2,2.2-0.3,4.4-0.4,6.7l14,0.6c0.1-2.4,0.3-4.9,0.4-7.3
			c0.6-8.9,1.7-17.9,3.2-26.7c8-46.4,27.6-90.5,58.2-131.1c24.6-32.6,49.2-53.5,59.7-62.5l0.2-0.1c3.6-3,7.1-6,10.7-8.7
			c10-3.2,19.8-7.1,29.6-11.5c-9.5,11.3-18.1,23.4-25.6,36c-0.5,0.8-0.9,1.6-1.4,2.3l-0.4,0.4c-39.8,40.1-94.4,95-108.9,179
			c-1.3,7.5-2.3,15.2-2.9,22.9c-0.2,2.2-0.3,4.4-0.5,6.6l14,0.8c0.1-2.5,0.3-4.9,0.5-7.4c0.6-6.9,1.5-13.7,2.6-20.5
			c10.6-61.5,43.2-105.9,76.2-141.7c-6.5,16.9-11,34.2-13.6,51.8l-1.5,9.8l0.2,0c-3.6,33.9,0.5,67.4,12,97.4
			c0.4,1.1,0.8,2.2,1.3,3.2c1.9,4.8,4,9.4,6.3,14c10.3,20.6,24.3,39.3,41.8,55.7c8.3,7.8,17.2,14.9,26.8,21.5
			c4,2.8,8.1,5.4,12.3,7.9c10.5,6.3,21.7,12,33.5,16.9c36,15.2,75.7,22.8,113.4,22.8c31.1,0,60.9-5.2,86-15.8l0.1,0l1.4-0.6
			c10.9-4.7,20.6-10.3,29-16.8c39.8-30.6,66.7-74.9,79.9-131.8c8.9-38.1,11.3-81.2,7.3-128.8c8.3,21.2,17.2,40.6,26.9,58.2
			c4,7.3,8.2,14.4,12.5,21.1c18.6,29.1,39.4,52.2,62.1,68.8c0,0,0,0,0,0l7.7,5.6l0.1-0.2c19.9,13.1,41,21.3,63.1,24.7
			c36,5.4,82-12.7,126-49.8c50.7-42.7,105.5-118.3,107.9-202.8l0,0l0-1.4c0.5-24.7-3.6-48.5-12.3-70.8
			C1245.1,761.8,1244.3,759.8,1243.5,757.9z M1231.9,379.2c23.9,56.4,25.7,109.6,5.1,149.8c-2.1,4.1-4.5,8.1-7.1,12
			c-23.2-22.8-52.5-38.4-87.3-46.3c-20-4.6-41.7-6.6-65.1-6c16.9-7.2,32-15.3,45-24.3c28.1-19.3,46.9-42.5,55.9-68.9
			c12.3-35.9,6.1-76.7-17.3-118C1190.6,305.4,1215.8,341.3,1231.9,379.2z M660.2,99.4h1.5c54.2,0,100.3,14.8,129.9,41.9
			c0.8,0.7,1.5,1.4,2.3,2.1c-18.4,15.4-32.9,36.2-43.1,61.9c-4.6,11.6-8.4,24.3-11.2,38c-3-14.3-7-27.5-11.9-39.5
			c-11.7-28.8-28.8-51.2-50.9-66.9c-27.4-19.4-62.2-27.8-101.5-25.1C602.6,103.9,631.6,99.5,660.2,99.4z M195.5,648.4
			c-4.7,26-5.6,54-2.7,82.5c-14.6-37.2-18.7-81.5-11.3-127c4.8-29.2,14.3-57.5,27.5-81.9c13.9-25.6,31.2-46.2,51.4-61.3
			c17.4-12.9,38.1-22.1,61.7-27.2c18.1,22,44.6,40.4,79.3,55.3c-21.8-0.5-42.3,1.2-61.2,5.2c-37.2,7.8-68.3,24.1-92.6,48.6
			C221.3,569.2,203.2,605.8,195.5,648.4z M640.4,1190c-34.3-1-69-8.4-100.3-21.6c-26.4-11.1-49.4-25.8-68.4-43.7
			c-20.7-19.4-36.1-42.2-45.9-67.8c-11.2-29.2-14.8-62.1-10.6-95.4c27-6.3,54.2-20.6,80.8-42.5c11.6-9.6,23.2-20.6,34.7-33.1
			c-38.6,91-26,154.2-5.1,193.7c17.7,33.5,47.4,61.3,85.9,80.3c25.5,12.6,54.3,21.2,84.6,25.4C678.9,1189,660.1,1190.6,640.4,1190z
			 M1212.8,941.4c-18.2,32.6-42.9,62.5-71.6,86.7c-36,30.3-74,47.5-104.2,47.5c-3.7,0-7.2-0.3-10.7-0.8
			c-21.2-3.2-41.5-11.5-60.6-24.6c9.5-31.3,10.2-66.3,2.1-104c-4.2-19.3-10.7-39.5-19.5-60.2c18.1,19.6,36.4,35.8,54.9,48.2
			c34.3,23,68.9,33.4,102.8,30.9c31.8-2.4,61.8-15.9,89.2-40.2c16.5-14.7,31.6-33.2,44.7-54.4C1235,894.1,1225.8,918.1,1212.8,941.4
			z M1244.2,831.3c0,0.5,0,1,0,1.5c-15.2,33.1-35.4,61.3-58.3,81.7c-25,22.2-52.2,34.5-80.9,36.7c-65.9,4.9-134.8-44.7-199.1-143.6
			c0,0-0.1-0.1-0.1-0.1l-11.7,7.6c30.9,47.6,51.1,92.8,60.1,134.1c7.2,33.3,7,64.2-0.4,92c-0.3-0.3-0.7-0.5-1-0.8
			c-0.6-0.5-1.3-1.1-1.9-1.6c-0.9-0.8-1.8-1.5-2.6-2.3c-0.7-0.6-1.3-1.2-1.9-1.7c-0.9-0.8-1.8-1.6-2.6-2.5c-0.6-0.6-1.3-1.2-1.9-1.8
			c-0.9-0.9-1.8-1.8-2.7-2.6c-0.6-0.6-1.2-1.2-1.8-1.8c-1-1-1.9-2-2.9-3c-0.5-0.5-1-1.1-1.5-1.6c-1.3-1.4-2.6-2.9-3.9-4.3
			c-0.1-0.2-0.3-0.3-0.4-0.5c-1.4-1.6-2.8-3.3-4.2-5c-0.5-0.5-0.9-1.1-1.4-1.7c-0.9-1.2-1.9-2.3-2.8-3.5c-0.5-0.7-1.1-1.4-1.6-2.1
			c-0.8-1.1-1.7-2.2-2.5-3.3c-0.6-0.8-1.1-1.5-1.7-2.3c-0.8-1.1-1.6-2.2-2.4-3.3c-0.6-0.8-1.1-1.6-1.7-2.4c-0.8-1.1-1.6-2.2-2.3-3.4
			c-0.6-0.8-1.1-1.6-1.7-2.5c-0.8-1.2-1.5-2.3-2.3-3.5c-0.5-0.8-1.1-1.7-1.6-2.5c-0.8-1.2-1.6-2.5-2.4-3.8c-0.5-0.8-1-1.6-1.5-2.4
			c-0.8-1.4-1.7-2.9-2.5-4.3c-0.4-0.7-0.8-1.4-1.2-2.1c-1.2-2.2-2.5-4.3-3.7-6.6c-0.7-1.3-1.4-2.6-2.1-3.9
			c-9.1-17-17.6-35.7-25.4-56.1c0-0.1-0.1-0.1-0.1-0.2c-0.6-1.5-1.1-2.9-1.7-4.4c0-0.1-0.1-0.2-0.1-0.4c-0.6-1.5-1.1-3-1.7-4.6
			c0-0.1-0.1-0.2-0.1-0.2c-0.5-1.5-1.1-3-1.6-4.5c0-0.1-0.1-0.3-0.1-0.4c-0.5-1.5-1.1-3-1.6-4.5c-0.1-0.2-0.1-0.3-0.1-0.4
			c-0.5-1.5-1-3-1.5-4.5c-0.1-0.2-0.1-0.3-0.2-0.5c-0.5-1.4-1-2.9-1.4-4.3c-0.1-0.2-0.2-0.5-0.2-0.7c-0.5-1.5-0.9-2.9-1.4-4.4
			c-0.1-0.2-0.2-0.5-0.2-0.7c-0.5-1.5-0.9-2.9-1.4-4.4c-0.1-0.2-0.2-0.5-0.2-0.8c-0.4-1.4-0.9-2.8-1.3-4.2c-0.1-0.3-0.2-0.7-0.3-1
			c-0.4-1.4-0.9-2.9-1.3-4.3c-0.1-0.3-0.2-0.7-0.3-1c-0.4-1.4-0.8-2.8-1.2-4.2c-0.1-0.4-0.2-0.8-0.3-1.2c-0.4-1.4-0.8-2.7-1.2-4.1
			c-0.1-0.4-0.2-0.9-0.4-1.3c-0.4-1.4-0.8-2.8-1.2-4.2c-0.1-0.4-0.2-0.8-0.3-1.2c-0.4-1.4-0.7-2.7-1.1-4.1c-0.1-0.5-0.3-1-0.4-1.4
			c-0.4-1.3-0.7-2.7-1.1-4.1c-0.1-0.5-0.3-1-0.4-1.5c-0.4-1.3-0.7-2.7-1-4c-0.1-0.5-0.3-1-0.4-1.6c-0.3-1.3-0.7-2.7-1-4
			c-0.1-0.5-0.3-1.1-0.4-1.6c-0.3-1.4-0.6-2.7-1-4.1c-0.1-0.6-0.3-1.2-0.4-1.9l-13.6,3.2c0,0,0,0.1,0,0.1
			c20.1,85.1,23.8,159.1,10.9,219.9c-0.4,2-0.9,3.9-1.3,5.9c-12.4,53.6-37.6,95.3-74.8,123.8c-0.9,0.7-1.8,1.4-2.8,2.1
			c-0.3,0.2-0.6,0.4-1,0.7c-0.6,0.5-1.3,0.9-1.9,1.4c-0.4,0.3-0.8,0.5-1.2,0.8c-0.6,0.4-1.2,0.8-1.8,1.2c-0.4,0.3-0.9,0.5-1.3,0.8
			c-0.6,0.4-1.2,0.7-1.8,1.1c-0.5,0.3-1,0.5-1.4,0.8c-0.6,0.3-1.2,0.7-1.8,1c-0.5,0.3-1,0.5-1.5,0.8c-0.6,0.3-1.2,0.6-1.8,0.9
			c-0.5,0.3-1,0.5-1.6,0.8c-0.6,0.3-1.2,0.6-1.9,0.9c-0.5,0.2-1.1,0.5-1.6,0.7c-0.4,0.2-0.8,0.4-1.2,0.6
			c-41.1-1.1-80.4-10.3-113.7-26.8c-35.8-17.7-63.4-43.4-79.8-74.3c-24.7-46.7-36.6-129.4,46.9-258.1c0-0.1,0.1-0.1,0.1-0.2
			l-11.7-7.6c0,0-0.1,0.1-0.1,0.1c-27.9,43-56.9,76.9-86.1,100.9c-23.1,19-46.4,31.8-69.5,38.2c0-0.1,0-0.2,0.1-0.3
			c0.1-0.5,0.2-0.9,0.3-1.4c0.2-1.2,0.5-2.5,0.8-3.7c0.1-0.6,0.3-1.2,0.4-1.8c0.2-1.1,0.5-2.2,0.8-3.2c0.2-0.7,0.3-1.3,0.5-2
			c0.3-1,0.5-2,0.8-3.1c0.2-0.7,0.4-1.4,0.6-2c0.3-1,0.6-2,0.9-3c0.2-0.7,0.4-1.3,0.6-2c0.3-1.1,0.7-2.1,1-3.2
			c0.2-0.6,0.4-1.2,0.6-1.8c0.4-1.2,0.8-2.4,1.2-3.7c0.1-0.4,0.3-0.9,0.4-1.3c0.6-1.7,1.2-3.3,1.8-5c0.1-0.3,0.3-0.7,0.4-1
			c0.5-1.3,1-2.6,1.5-3.9c0.2-0.6,0.5-1.2,0.7-1.8c0.4-1,0.9-2.1,1.3-3.2c0.3-0.6,0.6-1.3,0.8-1.9c0.4-1,0.9-2,1.3-3
			c0.3-0.7,0.6-1.3,0.9-2c0.4-1,0.9-2,1.4-2.9c0.3-0.7,0.6-1.3,0.9-2c0.5-1,1-2,1.5-3c0.3-0.6,0.6-1.2,0.9-1.9
			c0.6-1.1,1.1-2.2,1.7-3.2c0.3-0.5,0.5-1,0.8-1.5c0.9-1.6,1.7-3.2,2.6-4.8c15.7-27.6,36.3-52.2,61.2-73.3l-8.4-11.2
			c-41.6,27.8-87.9,43.8-133.8,46.2c-45.2,2.4-85.7-8.5-117.2-31.6c-1.6-1.2-3.2-2.4-4.8-3.7c-0.5-0.4-1-0.8-1.5-1.2
			c-1.1-0.9-2.1-1.7-3.2-2.6c-0.6-0.5-1.2-1-1.7-1.6c-0.9-0.8-1.9-1.6-2.8-2.5c-0.6-0.6-1.2-1.2-1.8-1.8c-0.9-0.8-1.7-1.7-2.5-2.5
			c-0.6-0.6-1.2-1.3-1.8-1.9c-0.8-0.8-1.6-1.7-2.3-2.5c-0.6-0.7-1.2-1.4-1.8-2.1c-0.7-0.8-1.5-1.7-2.2-2.6c-0.6-0.7-1.2-1.5-1.8-2.2
			c-0.7-0.9-1.4-1.7-2.1-2.6c-0.6-0.8-1.2-1.5-1.7-2.3c-0.5-0.7-1.1-1.4-1.6-2.1c-9.2-40.6-10.6-81.3-4-118
			c7.2-39.8,23.9-73.9,48.4-98.5c22.3-22.5,51.1-37.5,85.5-44.8c38.4-8,83.9-6.3,135.1,5.2c0.1,0,0.1,0,0.2,0l3.1-13.7
			c-66.7-15-114.8-38-143.3-68.6c0.2,0,0.3-0.1,0.5-0.1c2-0.3,3.9-0.5,5.9-0.7c0.3,0,0.6-0.1,0.8-0.1c2-0.2,4.1-0.4,6.1-0.6
			c0.2,0,0.4,0,0.6,0c2.1-0.2,4.2-0.3,6.3-0.4c0.1,0,0.2,0,0.3,0c2.1-0.1,4.3-0.2,6.4-0.2h0.3c2.1,0,4.3-0.1,6.4-0.1h0.6
			c2.1,0,4.1,0,6.2,0.1c0.3,0,0.6,0,0.9,0c2,0.1,4,0.1,6.1,0.2c0.3,0,0.7,0,1,0c2,0.1,4,0.2,6,0.4c0.4,0,0.7,0,1.1,0.1
			c2,0.1,4,0.3,5.9,0.5c0.4,0,0.7,0.1,1,0.1c2,0.2,4,0.4,6,0.6c0.3,0,0.6,0.1,1,0.1c2,0.2,4,0.5,6,0.8c0.3,0,0.6,0.1,0.8,0.1
			c2.1,0.3,4.1,0.6,6.2,0.9c0.2,0,0.4,0.1,0.6,0.1c2.1,0.3,4.3,0.7,6.4,1.1c0.1,0,0.1,0,0.2,0c2.1,0.4,4.2,0.8,6.3,1.2
			c0.2,0,0.4,0.1,0.5,0.1c2,0.4,4.1,0.8,6.1,1.2c0.2,0,0.5,0.1,0.8,0.2c2,0.4,3.9,0.9,5.9,1.3c0.3,0.1,0.6,0.1,0.9,0.2
			c1.9,0.4,3.8,0.9,5.7,1.4c0.3,0.1,0.6,0.2,1,0.2c1.9,0.5,3.8,1,5.6,1.5c0.3,0.1,0.7,0.2,1,0.3c1.9,0.5,3.7,1,5.6,1.5
			c0.3,0.1,0.6,0.2,0.9,0.3c1.9,0.5,3.7,1.1,5.6,1.6c0.3,0.1,0.5,0.2,0.8,0.2c1.9,0.6,3.8,1.2,5.6,1.8c0.2,0.1,0.4,0.1,0.6,0.2
			c1.9,0.6,3.8,1.2,5.7,1.9c0.1,0,0.2,0.1,0.3,0.1c1.9,0.6,3.8,1.3,5.7,2c0.1,0,0.2,0.1,0.2,0.1c1.9,0.7,3.7,1.3,5.6,2
			c0.2,0.1,0.3,0.1,0.5,0.2c1.8,0.7,3.5,1.3,5.3,2c0.2,0.1,0.4,0.2,0.7,0.2c1.7,0.7,3.4,1.3,5,2c0.2,0.1,0.5,0.2,0.7,0.3
			c1.6,0.7,3.3,1.3,4.9,2c0.2,0.1,0.5,0.2,0.8,0.3c1.6,0.7,3.2,1.3,4.7,2c0.2,0.1,0.5,0.2,0.7,0.3c1.6,0.7,3.1,1.4,4.6,2.1
			c0.2,0.1,0.4,0.2,0.6,0.3c1.5,0.7,3.1,1.4,4.6,2.2c0.2,0.1,0.3,0.1,0.5,0.2c1.5,0.7,3.1,1.5,4.6,2.2c0.1,0,0.2,0.1,0.2,0.1
			c1.6,0.8,3.1,1.5,4.6,2.3c1.6,0.8,3.2,1.7,4.9,2.6c4.1,2.2,8.2,4.5,12.2,7l7.3-11.9c-7.4-4.7-14.6-9.6-21.5-14.8
			c-37.6-27.9-68.4-62.6-88.1-99.7c-22.8-42.9-29.8-87-19.7-124.1c0.3-1.1,0.6-2.2,1-3.3c0.1-0.4,0.3-0.8,0.4-1.2
			c0.2-0.7,0.4-1.4,0.7-2.1c0.2-0.5,0.4-1,0.5-1.5c0.2-0.6,0.4-1.2,0.6-1.7c0.2-0.6,0.4-1.1,0.6-1.7c0.2-0.5,0.4-1,0.6-1.6
			c0.2-0.6,0.5-1.2,0.7-1.7c0.2-0.5,0.4-1,0.6-1.5c0.2-0.6,0.5-1.2,0.8-1.8c0.2-0.5,0.4-1,0.6-1.4c0.3-0.6,0.6-1.2,0.9-1.8
			c0.2-0.5,0.4-0.9,0.6-1.4c0.3-0.6,0.6-1.2,0.9-1.8c0.2-0.5,0.5-0.9,0.7-1.3c0.3-0.6,0.7-1.2,1-1.8c0.2-0.4,0.5-0.9,0.7-1.3
			c0.3-0.6,0.7-1.2,1.1-1.8c0.2-0.4,0.5-0.8,0.7-1.3c0.4-0.6,0.7-1.2,1.1-1.8c0.3-0.4,0.5-0.8,0.8-1.2c0.4-0.6,0.8-1.2,1.2-1.8
			c0.3-0.4,0.5-0.8,0.8-1.2c0.4-0.6,0.8-1.2,1.2-1.8c0.3-0.4,0.5-0.8,0.8-1.2c0.4-0.6,0.9-1.2,1.3-1.8c0.3-0.4,0.6-0.8,0.9-1.2
			c0.4-0.6,0.9-1.2,1.3-1.7c0.3-0.4,0.6-0.8,0.9-1.2c0.4-0.6,0.9-1.2,1.4-1.7c0.3-0.4,0.6-0.8,0.9-1.2c0.5-0.6,0.9-1.1,1.4-1.7
			c0.3-0.4,0.6-0.8,1-1.2c0.5-0.5,1-1.1,1.4-1.6c0.3-0.4,0.7-0.8,1-1.2c0.5-0.5,1-1.1,1.5-1.6c0.4-0.4,0.7-0.8,1.1-1.2
			c0.5-0.5,1-1.1,1.5-1.6c0.4-0.4,0.7-0.8,1.1-1.2c0.5-0.5,1-1,1.6-1.5c0.4-0.4,0.8-0.8,1.2-1.1c0.5-0.5,1.1-1,1.6-1.5
			c0.4-0.4,0.8-0.8,1.2-1.2c0.5-0.5,1.1-1,1.6-1.5c0.4-0.4,0.8-0.8,1.3-1.2c0.5-0.5,1.1-1,1.6-1.4c0.4-0.4,0.9-0.8,1.3-1.2
			c0.5-0.5,1.1-0.9,1.7-1.4c0.5-0.4,0.9-0.8,1.4-1.2c0.6-0.5,1.1-0.9,1.7-1.4c0.5-0.4,1-0.8,1.5-1.1c0.6-0.5,1.1-0.9,1.7-1.3
			c0.5-0.4,1-0.8,1.5-1.2c0.6-0.4,1.2-0.9,1.8-1.3c0.5-0.4,1-0.8,1.6-1.2c0.6-0.4,1.2-0.8,1.8-1.2c0.5-0.4,1.1-0.8,1.6-1.1
			c0.6-0.4,1.2-0.8,1.8-1.2c0.6-0.4,1.1-0.8,1.7-1.1c0.6-0.4,1.2-0.8,1.8-1.2c0.6-0.4,1.2-0.8,1.8-1.1c0.6-0.4,1.2-0.8,1.8-1.1
			c0.5-0.3,1-0.6,1.5-0.9c63.1-22.2,119.3-19.3,158.3,8.3c19.9,14,35.3,34.5,46,60.7c11.8,29.1,17.8,65.5,17.8,108.4h14
			c0-42.1,5.8-78.1,17.3-107c9.4-23.7,22.7-42.8,39.6-56.8c0,0,0.1,0.1,0.1,0.1c0.3,0.3,0.5,0.7,0.8,1c0.4,0.5,0.8,1,1.3,1.6
			c0.3,0.4,0.6,0.8,0.9,1.1c0.4,0.5,0.8,1,1.2,1.5c0.3,0.4,0.6,0.8,0.9,1.2c0.4,0.5,0.8,1,1.1,1.5c0.3,0.4,0.6,0.8,0.9,1.2
			c0.4,0.5,0.7,1,1.1,1.6c0.3,0.4,0.6,0.9,0.9,1.3c0.4,0.5,0.7,1.1,1,1.6c0.3,0.4,0.6,0.9,0.9,1.3c0.3,0.5,0.7,1.1,1,1.7
			c0.3,0.5,0.6,0.9,0.8,1.4c0.3,0.6,0.7,1.1,1,1.7c0.3,0.5,0.5,0.9,0.8,1.4c0.3,0.6,0.6,1.1,1,1.7c0.3,0.5,0.5,0.9,0.8,1.4
			c0.3,0.6,0.6,1.2,0.9,1.8c0.3,0.5,0.5,1,0.8,1.5c0.3,0.6,0.6,1.2,0.9,1.9c0.2,0.5,0.5,0.9,0.7,1.4c0.3,0.6,0.6,1.3,0.9,2
			c0.2,0.5,0.4,0.9,0.7,1.4c0.3,0.7,0.6,1.4,0.9,2.1c0.2,0.4,0.4,0.9,0.6,1.3c0.3,0.8,0.7,1.6,1,2.4c0.2,0.4,0.3,0.8,0.5,1.1
			c0.4,1.1,0.9,2.2,1.3,3.2c0,0.1,0.1,0.2,0.1,0.3c0.5,1.2,0.9,2.4,1.4,3.7c0.1,0.3,0.2,0.7,0.4,1c0.3,0.9,0.7,1.8,1,2.7
			c0.2,0.5,0.3,0.9,0.5,1.4c0.3,0.8,0.6,1.6,0.8,2.4c0.2,0.5,0.3,1,0.5,1.5c0.2,0.8,0.5,1.5,0.7,2.3c0.2,0.5,0.3,1.1,0.5,1.6
			c0.2,0.8,0.5,1.5,0.7,2.2c0.2,0.6,0.3,1.1,0.5,1.7c0.2,0.7,0.4,1.5,0.7,2.2c0.2,0.6,0.3,1.2,0.5,1.8c0.2,0.8,0.4,1.5,0.6,2.3
			c0.2,0.6,0.3,1.2,0.5,1.8c0.2,0.8,0.4,1.5,0.6,2.3c0.2,0.6,0.3,1.2,0.4,1.8c0.2,0.8,0.4,1.5,0.6,2.3c0.1,0.6,0.3,1.2,0.4,1.9
			c0.2,0.8,0.3,1.6,0.5,2.4c0.1,0.6,0.3,1.2,0.4,1.9c0.2,0.8,0.3,1.6,0.5,2.4c0.1,0.6,0.2,1.3,0.4,1.9c0.2,0.8,0.3,1.6,0.5,2.5
			c0.1,0.6,0.2,1.2,0.3,1.9c0.1,0.8,0.3,1.7,0.4,2.6c0.1,0.6,0.2,1.2,0.3,1.8c0.2,0.9,0.3,1.8,0.4,2.7c0.1,0.6,0.2,1.2,0.3,1.8
			c0.2,1,0.3,2,0.5,3.1c0.1,0.5,0.1,1,0.2,1.5c0.2,1.5,0.4,3,0.6,4.6c4.9,39.7,3.6,84.8-3.7,123.7c-1.2,6.3-2.6,12.6-4.1,18.9
			l13.6,3.4c0.4-1.6,0.8-3.2,1.3-4.8c11.3-41.8,29.4-79.5,52.6-110.5c4.5-6,9.2-11.7,14-17.1c2.9-3.3,5.9-6.4,8.8-9.4
			c28.9-29,61.2-46.2,94.3-49.9c7.1-0.8,14.4-1,21.8-0.5h0.1c1,0.1,2,0.2,3.1,0.2c0.1,0,0.1,0,0.2,0c1,0.1,2,0.2,3,0.3
			c0.1,0,0.2,0,0.3,0c1,0.1,1.9,0.2,2.9,0.3c0.1,0,0.3,0,0.4,0.1c0.9,0.1,1.9,0.3,2.8,0.4c0.2,0,0.3,0.1,0.5,0.1
			c0.9,0.1,1.8,0.3,2.7,0.5c0.2,0,0.4,0.1,0.6,0.1c0.9,0.2,1.7,0.3,2.6,0.5c0.2,0,0.5,0.1,0.7,0.2c0.8,0.2,1.7,0.3,2.5,0.5
			c0.3,0.1,0.5,0.1,0.8,0.2c0.8,0.2,1.6,0.4,2.4,0.6c0.3,0.1,0.6,0.2,0.9,0.2c0.8,0.2,1.5,0.4,2.3,0.6c0.3,0.1,0.6,0.2,1,0.3
			c0.8,0.2,1.5,0.4,2.2,0.6c0.4,0.1,0.7,0.2,1.1,0.3c0.7,0.2,1.4,0.4,2.2,0.7c0.4,0.1,0.8,0.2,1.1,0.4c0.7,0.2,1.4,0.5,2.1,0.7
			c0.4,0.1,0.8,0.3,1.2,0.4c0.7,0.2,1.3,0.5,2,0.7c0.4,0.2,0.9,0.3,1.3,0.5c0.6,0.2,1.3,0.5,1.9,0.7c0.4,0.2,0.9,0.4,1.4,0.5
			c0.6,0.2,1.2,0.5,1.9,0.7c0.5,0.2,0.9,0.4,1.4,0.6c0.6,0.2,1.2,0.5,1.8,0.8c0.5,0.2,1,0.4,1.5,0.7c0.6,0.3,1.2,0.5,1.8,0.8
			c0.5,0.2,1,0.5,1.5,0.7c0.6,0.3,1.1,0.5,1.7,0.8c0.5,0.2,1,0.5,1.5,0.8c0.6,0.3,1.1,0.5,1.7,0.8c0.5,0.3,1.1,0.5,1.6,0.8
			c0.5,0.3,1.1,0.6,1.6,0.9c0.5,0.3,1.1,0.6,1.6,0.8c0.5,0.3,1.1,0.6,1.6,0.9c0.5,0.3,1.1,0.6,1.6,0.9c0.5,0.3,1.1,0.6,1.6,0.9
			c0.5,0.3,1.1,0.6,1.6,1c0.5,0.3,1,0.6,1.6,0.9c0.6,0.3,1.1,0.7,1.7,1c0.5,0.3,1,0.6,1.5,0.9c0.6,0.3,1.1,0.7,1.7,1
			c0.4,0.2,0.8,0.5,1.1,0.7c41.1,50,55.8,100.7,41.3,142.9c-8,23.5-25,44.3-50.6,61.9c-28.6,19.7-67.9,35.2-116.8,46.2
			c-0.1,0-0.1,0-0.2,0l3.1,13.7c52.9-11.9,99.6-13.4,138.8-4.4c32.9,7.5,60.4,22.3,81.9,43.9c-1,1.2-2.1,2.4-3.1,3.6
			c-0.1,0.1-0.2,0.2-0.3,0.4c-1.2,1.3-2.5,2.7-3.8,4c-0.4,0.4-0.9,0.8-1.3,1.3c-0.9,0.9-1.8,1.8-2.7,2.6c-0.5,0.5-1.1,1-1.7,1.5
			c-0.8,0.8-1.7,1.5-2.5,2.3c-0.6,0.5-1.2,1.1-1.9,1.6c-0.8,0.7-1.7,1.4-2.5,2.1c-0.7,0.5-1.3,1.1-2,1.6c-0.8,0.7-1.7,1.3-2.5,2
			c-0.7,0.5-1.4,1.1-2.1,1.6c-0.9,0.6-1.7,1.3-2.6,1.9c-0.7,0.5-1.5,1-2.2,1.5c-0.9,0.6-1.8,1.2-2.7,1.8c-0.8,0.5-1.5,1-2.3,1.5
			c-0.9,0.6-1.9,1.2-2.8,1.8c-0.8,0.5-1.6,1-2.4,1.4c-1,0.6-1.9,1.1-2.9,1.7c-0.8,0.5-1.6,0.9-2.4,1.4c-1,0.6-2,1.1-3.1,1.6
			c-0.8,0.4-1.6,0.9-2.4,1.3c-1.1,0.5-2.1,1.1-3.2,1.6c-0.8,0.4-1.6,0.8-2.4,1.2c-1.1,0.5-2.3,1.1-3.5,1.6c-0.8,0.4-1.6,0.7-2.4,1.1
			c-1.3,0.6-2.6,1.1-4,1.7c-0.7,0.3-1.3,0.6-2,0.8c-2,0.8-4.1,1.6-6.1,2.4c-33.9,12.8-73.8,19.2-115.1,18.5l-0.7,14
			c19.3,1.7,38,5.2,55.7,10.3c2.7,0.8,5.4,1.6,8.1,2.5c4,1.3,8,2.7,11.9,4.1c60.1,22.4,107,64.1,127.4,116.3c0.5,1.3,1,2.6,1.4,3.8
			c0.1,0.3,0.2,0.6,0.3,0.9c0.4,1,0.7,2,1,3c0.1,0.4,0.3,0.9,0.4,1.3c0.3,0.8,0.6,1.7,0.8,2.6c0.2,0.5,0.3,1,0.4,1.5
			c0.2,0.8,0.5,1.6,0.7,2.4c0.1,0.5,0.3,1.1,0.4,1.6c0.2,0.8,0.4,1.6,0.6,2.4c0.1,0.5,0.3,1.1,0.4,1.7c0.2,0.8,0.4,1.5,0.6,2.3
			c0.1,0.6,0.2,1.1,0.4,1.7c0.2,0.8,0.3,1.5,0.5,2.3c0.1,0.6,0.2,1.2,0.3,1.8c0.1,0.8,0.3,1.5,0.4,2.3c0.1,0.6,0.2,1.2,0.3,1.8
			c0.1,0.8,0.2,1.5,0.4,2.3c0.1,0.6,0.2,1.2,0.3,1.8c0.1,0.8,0.2,1.5,0.3,2.3c0.1,0.6,0.1,1.2,0.2,1.8c0.1,0.8,0.2,1.5,0.3,2.3
			c0.1,0.6,0.1,1.3,0.2,1.9c0.1,0.7,0.1,1.5,0.2,2.2c0,0.6,0.1,1.3,0.1,1.9c0.1,0.7,0.1,1.5,0.1,2.2c0,0.7,0.1,1.3,0.1,2
			c0,0.7,0.1,1.5,0.1,2.2c0,0.7,0,1.3,0.1,2c0,0.7,0,1.5,0,2.2C1244.2,829.9,1244.2,830.6,1244.2,831.3z"/>
		<path id="star_2_" d="M303.1,316.7c-49.6-53.4-60.4-82.4-57.7-155.1l0.6-16.9l-12.4,11.5c-53.4,49.6-82.4,60.3-155.2,57.7
			l-16.9-0.6l11.5,12.4c49.6,53.4,60.4,82.4,57.7,155.1l-0.6,16.9l12.4-11.5c53.4-49.6,82.4-60.4,155.2-57.7l16.9,0.6L303.1,316.7z
			 M145.2,365c0.4-60-11.3-91.6-50.8-136.7c60,0.4,91.6-11.3,136.7-50.8c-0.4,60,11.3,91.6,50.8,136.7
			C221.9,313.7,190.3,325.5,145.2,365z"/>
		<g id="circles_2_">
			<path d="M904.6,1188.8c-21.4,0-38.7,17.4-38.7,38.7c0,21.4,17.4,38.7,38.7,38.7s38.7-17.4,38.7-38.7
				C943.3,1206.2,926,1188.8,904.6,1188.8z M904.6,1252.2c-13.7,0-24.7-11.1-24.7-24.7c0-13.6,11.1-24.7,24.7-24.7
				c13.6,0,24.7,11.1,24.7,24.7C929.3,1241.2,918.2,1252.2,904.6,1252.2z"/>
			<path d="M827,1168c-14.6,0-26.4,11.8-26.4,26.4c0,14.6,11.8,26.4,26.4,26.4s26.4-11.9,26.4-26.4
				C853.5,1179.9,841.6,1168,827,1168z M827,1206.9c-6.9,0-12.4-5.6-12.4-12.4c0-6.9,5.6-12.4,12.4-12.4s12.4,5.6,12.4,12.4
				C839.5,1201.3,833.9,1206.9,827,1206.9z"/>
		</g>
	</g>
</g>
</svg>
